<svg version="1.1" xmlns="http://www.w3.org/2000/svg" width="570" height="438">
<path d="M0 0 C2.34257964 0.37880011 3.6736558 0.66422389 5.3515625 2.390625 C5.77179688 3.00421875 6.19203125 3.6178125 6.625 4.25 C9.30008024 8.01943125 12.05054416 11.71645873 14.875 15.375 C15.51961182 16.21309204 15.51961182 16.21309204 16.17724609 17.06811523 C18.8320711 20.51260352 21.52427251 23.92361659 24.25 27.3125 C27.59677576 31.47425908 30.81949464 35.7105533 34 40 C41.55262193 50.12372726 49.13303702 60.22933658 57.0625 70.0625 C60.09311929 73.83682954 63.06998174 77.64732297 66 81.5 C66.763125 82.5003125 67.52625 83.500625 68.3125 84.53125 C70 87 70 87 70 89 C71.485 89.495 71.485 89.495 73 90 C73.92687238 91.33881566 74.84311571 92.6861274 75.70703125 94.06640625 C77.30109406 96.45027662 79.07150049 98.64553108 80.875 100.875 C84.35403017 105.17868917 87.70583161 109.55421176 91 114 C92.06166917 115.41728941 93.12416415 116.83396061 94.1875 118.25 C95.125 119.5 96.0625 120.75 97 122 C97.82951172 123.04414063 97.82951172 123.04414063 98.67578125 124.109375 C100 126 100 126 100 128 C100.66 128 101.32 128 102 128 C103.36003823 129.6544188 104.63901205 131.37596045 105.875 133.125 C106.94621094 134.63126953 106.94621094 134.63126953 108.0390625 136.16796875 C109.4747018 138.24135221 110.88197408 140.31979587 112.25 142.4375 C113.86999856 144.98725863 113.86999856 144.98725863 115.8125 146.78125 C118.36585939 149.37108595 120.55702497 152.17051418 122.75 155.0625 C123.18828125 155.63613281 123.6265625 156.20976562 124.078125 156.80078125 C127.43423155 161.21054915 130.69795705 165.6829502 133.92578125 170.1875 C135.43081701 172.22822646 136.95520903 174.21362463 138.54296875 176.1875 C145.4067248 184.75103386 149.75366073 193.14137331 153.18579102 203.546875 C154.58217838 207.7540415 156.04102578 211.93920934 157.5 216.125 C157.94279297 217.40697266 157.94279297 217.40697266 158.39453125 218.71484375 C159.70451954 222.47168243 161.03894961 226.1853474 162.6328125 229.83203125 C163.74867423 232.41764228 164.62969141 234.85712661 165.375 237.5625 C167.5556594 245.08519804 170.11797027 252.56066077 173.17578125 259.7734375 C174.11977211 262.323555 173.93030643 263.48817265 173 266 C169.26613864 264.75537955 168.35194152 263.08692325 166 260 C165.02149805 258.97895449 164.02019573 257.9793879 163 257 C159.77876406 253.87079938 156.707899 250.63707345 153.6875 247.3125 C152.99011719 246.54550781 152.29273438 245.77851563 151.57421875 244.98828125 C150 243 150 243 150 241 C149.443125 240.773125 148.88625 240.54625 148.3125 240.3125 C141.79770094 236.61491134 136.91484223 229.51974589 132 224 C131.31808594 223.24589844 130.63617188 222.49179687 129.93359375 221.71484375 C129.31613281 221.02519531 128.69867188 220.33554687 128.0625 219.625 C127.51722656 219.01914062 126.97195312 218.41328125 126.41015625 217.7890625 C125 216 125 216 123.99609375 213.8359375 C123.07891937 211.64683124 123.07891937 211.64683124 120 211 C118.3515625 209.328125 118.3515625 209.328125 116.625 207.25 C114.67707863 204.95307605 112.75644926 202.75644926 110.625 200.625 C103.4290599 193.4290599 96.83913661 185.6004663 90.1875 177.90234375 C87.56201603 174.87511546 84.95363688 171.90212022 82.0625 169.125 C80 167 80 167 80 165 C79.443125 164.79375 78.88625 164.5875 78.3125 164.375 C75.71356735 162.82968869 74.154633 160.93402351 72.2890625 158.58203125 C69.69700671 155.40087188 66.66412717 152.6282284 63.6875 149.8125 C62 148 62 148 62 146 C61.01 145.67 60.02 145.34 59 145 C57.59765625 143.609375 57.59765625 143.609375 56.0625 141.75 C53.72937866 138.98444668 51.35232164 136.28467605 48.875 133.6484375 C48.329646 133.06739258 47.78429199 132.48634766 47.22241211 131.88769531 C46.12252806 130.71970548 45.01920789 129.55494117 43.91235352 128.39355469 C40 124.2202115 40 124.2202115 40 122 C39.16202881 121.65727051 39.16202881 121.65727051 38.30712891 121.30761719 C30.80185526 117.05383458 26.02605323 109.33736576 23.61773682 101.27770996 C22.51627958 97.12331314 21.55529523 92.94552748 20.625 88.75 C20.2257608 87.0604613 19.82342855 85.37165042 19.41796875 83.68359375 C18.62572983 80.36622925 17.85066072 77.0456346 17.09082031 73.72070312 C15.50047473 66.787092 13.74365785 59.89628431 12 53 C11.33159575 50.33376687 10.66580873 47.66688229 10 45 C9.66671452 43.66665471 9.33338123 42.33332136 9 41 C8.33333333 38.33333333 7.66666667 35.66666667 7 33 C6.83467773 32.33911377 6.66935547 31.67822754 6.49902344 30.99731445 C6.16817824 29.67312436 5.83809144 28.34874453 5.50878906 27.02416992 C4.64373175 23.54895204 3.76305713 20.07867247 2.859375 16.61328125 C2.67375 15.89333984 2.488125 15.17339844 2.296875 14.43164062 C1.94238089 13.05797595 1.58328684 11.6854869 1.21875 10.31445312 C0.31659548 6.79677803 -0.19447239 3.63246642 0 0 Z " fill="#FCFCFC" transform="translate(99,127)"/>
<path d="M0 0 C0.99 0 1.98 0 3 0 C2.33414232 6.72275586 0.86303797 13.08705599 -0.8125 19.625 C-1.08312256 20.69532471 -1.35374512 21.76564941 -1.63256836 22.8684082 C-3.02506959 28.33524953 -4.47320787 33.77478786 -6.0625 39.1875 C-7.93976886 45.5918452 -9.47985163 52.05493343 -11.00195312 58.55053711 C-12.86527113 66.491585 -14.82211831 74.40713861 -16.84594727 82.30883789 C-17.9958618 86.82722609 -19.09720269 91.32607014 -19.953125 95.91015625 C-21.8076969 105.61697507 -24.98953037 111.8185433 -32 119 C-33.09267658 120.28377248 -34.17733356 121.57446142 -35.25 122.875 C-37.70584286 125.71860752 -40.30626956 128.37907308 -43 131 C-43.556875 131.598125 -44.11375 132.19625 -44.6875 132.8125 C-46 134 -46 134 -48 134 C-48.226875 134.721875 -48.45375 135.44375 -48.6875 136.1875 C-50.28083443 139.60178807 -52.27353596 141.39471214 -55 144 C-56.83873718 146.12405847 -58.65032176 148.26790259 -60.44921875 150.42578125 C-60.96097656 150.94527344 -61.47273438 151.46476563 -62 152 C-62.66 152 -63.32 152 -64 152 C-64.26031006 152.58249512 -64.52062012 153.16499023 -64.78881836 153.76513672 C-66.08167895 156.15071338 -67.50242627 157.80330267 -69.37890625 159.7578125 C-70.04849365 160.46091553 -70.71808105 161.16401855 -71.40795898 161.88842773 C-72.11895752 162.62649658 -72.82995605 163.36456543 -73.5625 164.125 C-75.02422136 165.65940991 -76.48516418 167.19456186 -77.9453125 168.73046875 C-78.64817383 169.4682959 -79.35103516 170.20612305 -80.07519531 170.96630859 C-83.80078642 174.90265739 -87.40029227 178.94856424 -91 183 C-96.46858126 189.11431779 -101.98574995 195.17919044 -107.57543945 201.18286133 C-110.2268693 204.04036787 -112.82413728 206.9344818 -115.37890625 209.87890625 C-119.72248567 214.86650898 -124.27844102 219.64622925 -128.83398438 224.43945312 C-129.79208008 225.45362305 -129.79208008 225.45362305 -130.76953125 226.48828125 C-131.34292236 227.09196533 -131.91631348 227.69564941 -132.50708008 228.31762695 C-134.19091179 230.13755481 -134.19091179 230.13755481 -136 233 C-136.66 233 -137.32 233 -138 233 C-138.26103516 233.58394531 -138.52207031 234.16789063 -138.79101562 234.76953125 C-140.07452073 237.13748413 -141.47199131 238.75705914 -143.34375 240.6875 C-144.00858398 241.38101563 -144.67341797 242.07453125 -145.35839844 242.7890625 C-146.41849121 243.88347656 -146.41849121 243.88347656 -147.5 245 C-153.32316153 251.07090015 -158.82291642 257.23368266 -163.984375 263.875 C-166.05639162 266.05945163 -167.05425789 266.68154139 -170 267 C-169.58920379 258.92100796 -167.02423258 252.44676625 -164 245 C-163.00336563 242.40230341 -162.03223929 239.7953381 -161.0625 237.1875 C-160.55235708 235.82151232 -160.0419386 234.45562752 -159.53125 233.08984375 C-159.27730469 232.41034668 -159.02335937 231.73084961 -158.76171875 231.03076172 C-158.02310269 229.06159236 -157.27829448 227.09489162 -156.53125 225.12890625 C-154.35399849 219.38452939 -152.2072156 213.63711411 -150.20703125 207.828125 C-149.9020874 206.94350586 -149.59714355 206.05888672 -149.28295898 205.14746094 C-148.69523161 203.43374337 -148.11238512 201.71834082 -147.53540039 200.00097656 C-145.14953519 193.03484363 -142.47864729 186.41467232 -137.75 180.6875 C-135.03185893 177.31023889 -132.41999728 173.88517549 -129.875 170.375 C-129.20984375 169.45847656 -128.5446875 168.54195312 -127.859375 167.59765625 C-126.7092651 165.99088507 -125.57125172 164.37528344 -124.453125 162.74609375 C-123.34542777 161.1334169 -122.17941637 159.56099225 -121 158 C-120.34 158 -119.68 158 -119 158 C-118.9071875 157.195625 -118.9071875 157.195625 -118.8125 156.375 C-117.85875445 153.5871284 -116.25868939 151.83355377 -114.36645508 149.61474609 C-108.20232774 142.33056918 -102.60564199 134.50317557 -96.875 126.875 C-96.1171521 125.86687256 -96.1171521 125.86687256 -95.34399414 124.83837891 C-93.03903132 121.76184432 -90.75448788 118.67528576 -88.53125 115.5390625 C-87.8196875 114.53617187 -87.108125 113.53328125 -86.375 112.5 C-85.76398438 111.6234375 -85.15296875 110.746875 -84.5234375 109.84375 C-84.02070313 109.2353125 -83.51796875 108.626875 -83 108 C-82.34 108 -81.68 108 -81 108 C-80.62875 106.9171875 -80.62875 106.9171875 -80.25 105.8125 C-78.86899838 102.70524635 -77.1539041 100.63086705 -75 98 C-73.391409 95.91987898 -71.7868437 93.83718994 -70.1875 91.75 C-67.34865793 88.05019763 -64.50276237 84.35717732 -61.625 80.6875 C-58.26122634 76.37186712 -54.97299706 72.00030861 -51.6875 67.625 C-50.89496826 66.57058716 -50.89496826 66.57058716 -50.08642578 65.49487305 C-49.58739746 64.82883057 -49.08836914 64.16278809 -48.57421875 63.4765625 C-47.90265747 62.5805835 -47.90265747 62.5805835 -47.2175293 61.66650391 C-46.10292673 60.14088186 -45.04805483 58.57208224 -44 57 C-43.34 57 -42.68 57 -42 57 C-41.7525 56.278125 -41.505 55.55625 -41.25 54.8125 C-39.86862417 51.70440437 -38.15506472 49.63144745 -36 47 C-34.37007961 44.89939303 -32.74439956 42.79616761 -31.125 40.6875 C-30.68373779 40.11354492 -30.24247559 39.53958984 -29.7878418 38.94824219 C-26.96935904 35.27713091 -24.18113323 31.58503897 -21.4140625 27.875 C-19.86077043 25.8153862 -18.27678344 23.78196056 -16.6875 21.75 C-13.09378149 17.15004031 -9.59971042 12.47847439 -6.11328125 7.796875 C-5.41589844 6.87390625 -4.71851563 5.9509375 -4 5 C-3.31292969 4.05640625 -2.62585938 3.1128125 -1.91796875 2.140625 C-1.28503906 1.43421875 -0.65210938 0.7278125 0 0 Z " fill="#FCFCFC" transform="translate(471,127)"/>
<path d="M0 0 C18.25689177 -0.11033919 36.49855404 -0.0566969 54.75 0.4375 C55.50888519 0.45714813 56.26777039 0.47679626 57.0496521 0.49703979 C67.05475869 0.76122209 77.01838808 1.25748323 87 2 C88.03505859 6.47744151 87.66083586 9.98563231 86.75 14.4375 C85.42800873 21.33150173 84.39626009 28.22581023 83.5 35.1875 C82.72622664 41.1020207 81.89661153 46.93038917 80.5625 52.75 C79.15895075 58.90402364 78.17928445 65.07350144 77.25 71.3125 C75.44386795 83.40200583 73.43444653 95.45143647 71.375 107.5 C71.22293091 108.39312897 71.07086182 109.28625793 70.91418457 110.20645142 C69.49980864 118.50670031 68.08178216 126.79587613 66.38037109 135.04296875 C65.81928905 137.9297683 65.46728217 140.83012354 65.125 143.75 C64.26254706 150.47713291 63.14506542 157.13894117 61.9375 163.8125 C61.67573975 165.27284668 61.67573975 165.27284668 61.40869141 166.76269531 C61.24159668 167.67245117 61.07450195 168.58220703 60.90234375 169.51953125 C60.75273193 170.33526611 60.60312012 171.15100098 60.44897461 171.99145508 C60 174 60 174 59 176 C58.01 175.67 57.02 175.34 56 175 C54.93348071 172.49878108 54.06765527 170.10460057 53.2578125 167.51953125 C53.00756317 166.75509201 52.75731384 165.99065277 52.4994812 165.20304871 C51.69663998 162.74304966 50.91036101 160.27812909 50.125 157.8125 C49.34611498 155.40299088 48.56382543 152.99460875 47.78094482 150.58639526 C47.26512956 148.99894092 46.7508492 147.41098702 46.23809814 145.82254028 C44.30343297 139.85125468 42.21074965 133.95189865 40.07397461 128.04980469 C38.88698783 124.67907524 37.86094752 121.28512982 36.86279297 117.85498047 C34.9979332 111.68416266 32.90971911 105.58256491 30.86645508 99.46899414 C30.06562933 97.0718671 29.26800952 94.67369021 28.47070312 92.27539062 C26.32017656 85.8219718 24.16813849 79.37685026 21.80859375 72.99609375 C20.31428039 68.95258992 19.04873635 64.88246681 17.83984375 60.74609375 C16.06461586 54.94151138 14.00318839 49.22906004 12 43.5 C9.40002478 36.06414711 6.8367721 28.6402273 4.62597656 21.078125 C3.82575374 18.42153505 2.8712719 15.83873802 1.875 13.25 C0.49417863 9.50961415 -0.69176523 6.00705207 -1 2 C-0.67 1.34 -0.34 0.68 0 0 Z " fill="#FDFDFD" transform="translate(185,108)"/>
<path d="M0 0 C1.79473491 0.46418971 3.59033552 0.92504317 5.38671875 1.3828125 C6.28310059 1.61387695 7.17948242 1.84494141 8.10302734 2.08300781 C12.47756617 3.15989014 16.88998664 4.02077061 21.3125 4.875 C27.89386984 6.15671237 34.43125231 7.54493101 40.95703125 9.08984375 C45.22267657 10.07601893 49.51313982 10.92506633 53.8125 11.75 C54.42578125 13.578125 54.42578125 13.578125 54.8125 15.75 C53 18.5 53 18.5 50.8125 20.75 C50.1525 20.75 49.4925 20.75 48.8125 20.75 C48.41744263 21.62833496 48.41744263 21.62833496 48.0144043 22.52441406 C46.75927217 24.84856286 45.40564046 26.45607738 43.58203125 28.359375 C42.94330078 29.03226563 42.30457031 29.70515625 41.64648438 30.3984375 C40.64584961 31.43871094 40.64584961 31.43871094 39.625 32.5 C38.31764822 33.86849162 37.01165475 35.23828217 35.70703125 36.609375 C35.06330566 37.28419922 34.41958008 37.95902344 33.75634766 38.65429688 C31.16172238 41.45161707 28.70477171 44.35777902 26.2644043 47.29003906 C25.54571167 48.01271973 25.54571167 48.01271973 24.8125 48.75 C24.1525 48.75 23.4925 48.75 22.8125 48.75 C22.54953125 49.33136719 22.2865625 49.91273437 22.015625 50.51171875 C20.75335206 52.86003822 19.34801439 54.58797845 17.5625 56.5625 C15.2350438 59.16036605 12.93532437 61.77039233 10.6875 64.4375 C8.19625849 67.35599929 5.52634869 70.03615131 2.8125 72.75 C0.97911081 74.87832571 -0.83797567 77.01808722 -2.63671875 79.17578125 C-3.14847656 79.69527344 -3.66023438 80.21476562 -4.1875 80.75 C-4.8475 80.75 -5.5075 80.75 -6.1875 80.75 C-6.42210937 81.31203125 -6.65671875 81.8740625 -6.8984375 82.453125 C-8.49413 85.29635891 -10.47674543 87.23098127 -12.8125 89.5 C-13.62976563 90.29921875 -14.44703125 91.0984375 -15.2890625 91.921875 C-15.91554688 92.52515625 -16.54203125 93.1284375 -17.1875 93.75 C-20.80227175 92.25198648 -22.87370463 90.17462583 -25.4375 87.25 C-26.14390625 86.4559375 -26.8503125 85.661875 -27.578125 84.84375 C-29.1875 82.75 -29.1875 82.75 -29.1875 80.75 C-29.75082031 80.52183594 -30.31414062 80.29367188 -30.89453125 80.05859375 C-33.81481794 78.39199061 -35.64485763 76.32279249 -37.875 73.8125 C-38.66261719 72.93722656 -39.45023437 72.06195313 -40.26171875 71.16015625 C-42.1875 68.75 -42.1875 68.75 -43.1875 65.75 C-44.51013011 65.06234325 -45.84497062 64.39794837 -47.1875 63.75 C-48.79296875 62.15625 -48.79296875 62.15625 -50.375 60.25 C-53.92423354 56.03865348 -57.62493086 51.98958736 -61.3671875 47.94921875 C-63.1875 45.75 -63.1875 45.75 -64.1875 42.75 C-65.6725 42.255 -65.6725 42.255 -67.1875 41.75 C-68.94140625 40.04296875 -68.94140625 40.04296875 -70.75 37.9375 C-71.34941406 37.25042969 -71.94882813 36.56335937 -72.56640625 35.85546875 C-74.1875 33.75 -74.1875 33.75 -75.15234375 31.61328125 C-76.47393391 29.23441896 -77.77949856 28.94737319 -80.1875 27.75 C-82.22265625 25.47265625 -82.22265625 25.47265625 -84.25 22.8125 C-86.44160488 19.95626254 -88.5666185 17.22391618 -91.1875 14.75 C-89.1875 11.75 -89.1875 11.75 -86.0546875 10.94140625 C-84.72569364 10.72103737 -83.39475443 10.51221295 -82.0625 10.3125 C-76.70141216 9.40865112 -71.45257809 8.37783224 -66.1875 7 C-58.56764751 5.04652339 -50.91597739 3.22808469 -43.24536133 1.48571777 C-41.85598319 1.1674486 -40.46788816 0.84351303 -39.08129883 0.51330566 C-25.86753904 -2.62514293 -13.23646362 -3.6966941 0 0 Z " fill="#FDFDFD" transform="translate(304.1875,2.25)"/>
<path d="M0 0 C24.09 0 48.18 0 73 0 C74 4 74 4 73.13549805 5.83105469 C72.68215088 6.43852539 72.22880371 7.04599609 71.76171875 7.671875 C71.27123047 8.33574219 70.78074219 8.99960938 70.27539062 9.68359375 C69.48938477 10.70646484 69.48938477 10.70646484 68.6875 11.75 C68.17509766 12.44738281 67.66269531 13.14476563 67.13476562 13.86328125 C64.31265049 17.62364848 64.31265049 17.62364848 63 19 C62.34 19 61.68 19 61 19 C60.73606445 19.73395996 60.47212891 20.46791992 60.20019531 21.22412109 C58.99737909 24.00606179 57.65405476 26.02993026 55.796875 28.4140625 C55.15282715 29.24856934 54.5087793 30.08307617 53.84521484 30.94287109 C53.15379395 31.82797363 52.46237305 32.71307617 51.75 33.625 C50.29809944 35.50414311 48.84760799 37.38437569 47.3984375 39.265625 C46.29773926 40.69358398 46.29773926 40.69358398 45.17480469 42.15039062 C41.26650343 47.2713709 37.47470816 52.47798836 33.69433594 57.69384766 C31.17067552 61.15296326 28.61144678 64.50470229 25.7890625 67.7265625 C23.50379887 70.33861248 21.72969225 72.98161352 20 76 C18.66931207 77.85044538 17.31301189 79.68262676 15.9375 81.5 C15.3504126 82.27766724 15.3504126 82.27766724 14.75146484 83.07104492 C11.4925489 87.37816153 8.1852711 91.64786114 4.8815918 95.9206543 C0.19659264 102.00418766 -4.3147453 108.21384623 -8.84130859 114.41552734 C-11.86770911 118.55403121 -14.95112748 122.64528802 -18.08984375 126.69921875 C-24.40829352 134.8609764 -30.55034869 143.14201915 -36.66015625 151.4609375 C-40.10764269 156.15310592 -43.58845736 160.81858601 -47.09765625 165.46484375 C-48.34967784 167.13334891 -49.58715409 168.81288504 -50.80859375 170.50390625 C-51.61490234 171.61572266 -51.61490234 171.61572266 -52.4375 172.75 C-52.88996094 173.38421875 -53.34242188 174.0184375 -53.80859375 174.671875 C-54.20175781 175.11015625 -54.59492188 175.5484375 -55 176 C-55.66 176 -56.32 176 -57 176 C-56.9617035 168.03432794 -54.40807099 161.28931878 -51.5390625 153.9921875 C-49.8193281 149.60655287 -48.46038487 145.14533243 -47.11328125 140.6328125 C-45.73204946 136.12563508 -44.24684079 131.65739336 -42.75 127.1875 C-42.44868164 126.28757324 -42.14736328 125.38764648 -41.83691406 124.46044922 C-41.20788086 122.58353772 -40.57847949 120.70674957 -39.94873047 118.83007812 C-38.39702518 114.20131649 -36.85523376 109.56925779 -35.3125 104.9375 C-34.63676883 102.91013956 -33.96098514 100.88279662 -33.28515625 98.85546875 C-32.92309082 97.76927246 -32.56102539 96.68307617 -32.18798828 95.56396484 C-25.18684896 74.56054688 -18.18570964 53.55712891 -11.18457031 32.55371094 C-10.83688599 31.51053711 -10.83688599 31.51053711 -10.48217773 30.44628906 C-10.0242029 29.07252588 -9.56603586 27.69882675 -9.10766602 26.32519531 C-7.85062241 22.55720149 -6.59818296 18.78773471 -5.35058594 15.01660156 C-5.07693207 14.19112823 -4.8032782 13.36565491 -4.52133179 12.51516724 C-3.99131895 10.91618705 -3.46248207 9.31681647 -2.93496704 7.7170105 C-1.11252139 2.22504278 -1.11252139 2.22504278 0 0 Z " fill="#FBFCFB" transform="translate(401,108)"/>
<path d="M0 0 C0.68958298 -0.00175232 1.37916595 -0.00350464 2.08964539 -0.00531006 C4.37424215 -0.00971947 6.6587618 -0.00679379 8.94335938 -0.00341797 C10.52754735 -0.00409127 12.11173523 -0.00506152 13.69592285 -0.00631714 C17.01815778 -0.00779288 20.34036585 -0.00564353 23.66259766 -0.00097656 C27.92666004 0.00472066 32.19065948 0.00144099 36.45471954 -0.00454903 C39.72658769 -0.00815798 42.99844085 -0.00701451 46.27030945 -0.00442123 C47.84282946 -0.00375289 49.41535082 -0.00457717 50.98786926 -0.00690079 C53.1833559 -0.00943277 55.37873979 -0.005579 57.57421875 0 C58.82505249 0.00079559 60.07588623 0.00159119 61.36462402 0.00241089 C64.28710938 0.12939453 64.28710938 0.12939453 66.28710938 1.12939453 C65.72911548 4.49799111 64.90686089 5.81139365 62.14648438 7.79345703 C61.16881104 8.50900757 61.16881104 8.50900757 60.17138672 9.23901367 C59.11491943 9.9891272 59.11491943 9.9891272 58.03710938 10.75439453 C56.56523603 11.8279018 55.0938885 12.90213036 53.62304688 13.97705078 C52.88795898 14.50959473 52.15287109 15.04213867 51.39550781 15.59082031 C48.44575934 17.74335793 45.55323193 19.96109009 42.66210938 22.19189453 C41.62441406 22.99240234 40.58671875 23.79291016 39.51757812 24.61767578 C35.38286051 27.82478957 31.27501052 31.06608238 27.16552734 34.30541992 C23.6323938 37.08626445 20.06551882 39.80980714 16.45507812 42.48876953 C13.4721584 44.74611419 10.53721776 47.06365329 7.59960938 49.37939453 C1.40651498 54.26083476 -4.82795248 59.08511394 -11.08642578 63.88232422 C-13.88051965 66.02465857 -16.67184309 68.17059366 -19.46289062 70.31689453 C-20.00010742 70.7299585 -20.53732422 71.14302246 -21.09082031 71.56860352 C-25.64454508 75.07216929 -30.18331205 78.59468464 -34.71289062 82.12939453 C-35.37289062 81.79939453 -36.03289062 81.46939453 -36.71289062 81.12939453 C-36.08379809 76.70566937 -35.0186077 72.6724586 -33.58789062 68.44189453 C-33.37197266 67.80251953 -33.15605469 67.16314453 -32.93359375 66.50439453 C-30.83476231 60.35487721 -28.56829952 54.26811263 -26.30029297 48.17944336 C-24.51031943 43.35583859 -22.81458269 38.51877032 -21.21289062 33.62939453 C-19.27591096 27.73507562 -17.21933916 21.89374754 -15.08789062 16.06689453 C-14.79849609 15.26896484 -14.50910156 14.47103516 -14.2109375 13.64892578 C-9.18149482 0.00583989 -9.18149482 0.00583989 0 0 Z " fill="#FBFCFC" transform="translate(135.712890625,13.87060546875)"/>
<path d="M0 0 C0.66846954 -0.00175232 1.33693909 -0.00350464 2.02566528 -0.00531006 C4.24052509 -0.00971957 6.45530536 -0.00679342 8.67016602 -0.00341797 C10.20711787 -0.00409135 11.74406963 -0.00506166 13.28102112 -0.00631714 C16.50490328 -0.00779296 19.72875777 -0.00564357 22.95263672 -0.00097656 C27.08656491 0.00471587 31.22042811 0.00144407 35.3543539 -0.00454903 C38.52932729 -0.00816185 41.70428526 -0.00701264 44.87925911 -0.00442123 C46.40350413 -0.00375372 47.92775055 -0.00457429 49.45199394 -0.00690079 C51.58261701 -0.00943858 53.71313478 -0.00557057 55.84375 0 C57.05683334 0.00079559 58.26991669 0.00159119 59.51976013 0.00241089 C62.48657227 0.12939453 62.48657227 0.12939453 65.48657227 1.12939453 C66.41870117 2.83398438 66.41870117 2.83398438 67.21313477 5.09033203 C67.51832031 5.94143555 67.82350586 6.79253906 68.13793945 7.66943359 C68.45923828 8.6049707 68.78053711 9.54050781 69.11157227 10.50439453 C69.45349609 11.47086914 69.79541992 12.43734375 70.14770508 13.43310547 C73.33169143 22.50185793 76.35982628 31.62630898 79.34057617 40.76367188 C81.49331197 47.32818722 83.85880638 53.74167261 86.48657227 60.12939453 C87.58950671 62.89287855 88.66827427 65.6648648 89.73657227 68.44189453 C90.13875977 69.45606445 90.13875977 69.45606445 90.54907227 70.49072266 C91.95297516 74.1616422 92.82192547 77.18899433 92.48657227 81.12939453 C88.48657227 81.12939453 88.48657227 81.12939453 86.04907227 78.81689453 C84.78063477 77.48658203 84.78063477 77.48658203 83.48657227 76.12939453 C82.7324707 75.68208984 81.97836914 75.23478516 81.20141602 74.77392578 C77.45160785 72.50245925 74.25473545 69.65522063 70.94750977 66.80126953 C67.93129336 64.23361864 64.8833413 62.14909504 61.48657227 60.12939453 C60.47000114 59.14624492 59.47179633 58.14395529 58.48657227 57.12939453 C56.43903025 55.45986027 54.38141535 53.81679918 52.29907227 52.19189453 C51.69409912 51.71751953 51.08912598 51.24314453 50.46582031 50.75439453 C44.95192735 46.45059424 39.35772127 42.25586645 33.72998047 38.10229492 C33.08891357 37.62655029 32.44784668 37.15080566 31.78735352 36.66064453 C31.22185791 36.24363281 30.6563623 35.82662109 30.07373047 35.39697266 C28.41823019 34.07481338 26.97672562 32.63342361 25.48657227 31.12939453 C23.43714698 29.48412164 21.37761753 27.86196073 19.29907227 26.25439453 C15.21149931 23.07535235 11.15057829 19.87060303 7.14672852 16.58642578 C6.07491333 15.70736572 6.07491333 15.70736572 4.98144531 14.81054688 C3.59100337 13.66687115 2.20305171 12.52015963 0.81787109 11.37011719 C-0.13889526 10.58386963 -0.13889526 10.58386963 -1.11499023 9.78173828 C-1.67524902 9.31759521 -2.23550781 8.85345215 -2.81274414 8.37524414 C-4.6290943 7.04466205 -6.47620607 6.08011652 -8.51342773 5.12939453 C-8.51342773 3.80939453 -8.51342773 2.48939453 -8.51342773 1.12939453 C-5.64899426 -0.30282221 -3.2015894 0.00210112 0 0 Z " fill="#FBFCFC" transform="translate(381.513427734375,13.87060546875)"/>
<path d="M0 0 C4.27452819 0.81758127 5.39108509 2.52144678 8 6 C8.763125 6.763125 9.52625 7.52625 10.3125 8.3125 C12.48412196 10.48412196 14.49384164 12.68051539 16.5 15 C18.44747527 17.2496697 20.39383539 19.39383539 22.5 21.5 C25.21961562 24.21961562 27.68435725 27.0910387 30.15625 30.03515625 C32.00463644 32.10416317 32.00463644 32.10416317 34.46875 33.9375 C37.0887563 36.07231995 38.95187284 38.25759168 41 40.9375 C43.81883255 44.54286073 46.67183521 47.84700178 50 51 C52.05710444 52.9589133 54.03547119 54.94409776 56 57 C56 57.66 56 58.32 56 59 C57.485 59.495 57.485 59.495 59 60 C59.75 62 59.75 62 60 64 C58.20011601 65.79988399 55.75000124 65.11993004 53.35444641 65.12442017 C52.54452744 65.12082489 51.73460846 65.11722961 50.90014648 65.11352539 C50.05143982 65.11367142 49.20273315 65.11381744 48.32830811 65.1139679 C45.50921109 65.11326848 42.69017929 65.10547478 39.87109375 65.09765625 C37.92196183 65.09579217 35.97282945 65.09436822 34.0236969 65.09336853 C28.88293168 65.08954255 23.74219453 65.07971159 18.60144043 65.06866455 C13.35994852 65.05845215 8.1184521 65.05387128 2.87695312 65.04882812 C-7.41537694 65.03808939 -17.70768614 65.02101201 -28 65 C-29.21134278 61.36597165 -28.72320938 60.75840829 -27.15625 57.38671875 C-26.73762695 56.475271 -26.31900391 55.56382324 -25.88769531 54.62475586 C-25.42975586 53.65546143 -24.97181641 52.68616699 -24.5 51.6875 C-24.03948242 50.69435791 -23.57896484 49.70121582 -23.10449219 48.67797852 C-20.04347087 42.1117145 -16.86488803 35.61432891 -13.58203125 29.15625 C-10.91497001 23.83529819 -8.46799235 18.4153323 -6 13 C-4.87759672 10.56129421 -3.75117504 8.12446894 -2.625 5.6875 C-2.12226563 4.59824219 -1.61953125 3.50898437 -1.1015625 2.38671875 C-0.73804688 1.59910156 -0.37453125 0.81148437 0 0 Z " fill="#FCFCFC" transform="translate(213,31)"/>
<path d="M0 0 C0.99 0 1.98 0 3 0 C3.17305664 1.15749756 3.17305664 1.15749756 3.34960938 2.33837891 C4.61669822 10.70592314 6.03357447 19.04040066 7.5 27.375 C9.00203389 35.98449588 10.40872199 44.56459559 11.4765625 53.23828125 C12.16752857 58.2039553 13.05545931 63.12770802 13.9375 68.0625 C15.29429562 75.6704027 16.49831521 83.27474972 17.5 90.9375 C18.49936432 98.56994019 19.64924209 106.16091099 20.9375 113.75 C22.47516041 122.82830635 24.00164005 131.90704036 25.33496094 141.01806641 C26.23877308 147.19050803 27.22902779 153.32788766 28.34835815 159.4644928 C35.13138155 196.99452601 35.13138155 196.99452601 26.95117188 215.77148438 C25.65971273 218.79726443 24.76793935 221.89937585 23.875 225.0625 C22.07194185 230.87580817 20.12006741 236.63661842 18.1484375 242.39453125 C17.14700527 245.53848345 16.31305873 248.68058769 15.53613281 251.88598633 C14.32712045 256.65321676 12.82778744 261.34174618 11.39111328 266.04418945 C10.07669905 270.36382897 8.7995954 274.6837275 7.63671875 279.046875 C7.42313721 279.83006104 7.20955566 280.61324707 6.98950195 281.42016602 C6.58736822 282.90392286 6.19861706 284.39138771 5.82495117 285.88256836 C5.2734375 287.88671875 5.2734375 287.88671875 4 291 C1.8515625 291.95703125 1.8515625 291.95703125 0 292 C-2.41455417 286.7203626 -4.08825435 281.48364433 -5.5625 275.875 C-6.82324953 271.12084231 -8.13030304 266.55688047 -10 262 C-10.32561837 260.65359387 -10.61797804 259.29866734 -10.875 257.9375 C-11.86023636 253.28626786 -13.33733626 248.88880577 -14.875 244.39453125 C-16.10537843 240.68203524 -17.22230035 236.9428287 -18.3125 233.1875 C-20.69256142 224.9907775 -23.17298174 216.82641149 -25.67700195 208.66674805 C-25.96406006 207.72871338 -26.25111816 206.79067871 -26.546875 205.82421875 C-26.80307617 204.98979248 -27.05927734 204.15536621 -27.32324219 203.2956543 C-30.555737 192.33059342 -28.70527238 181.69873555 -26.6875 170.625 C-26.21842243 167.96058843 -25.75723258 165.29483667 -25.296875 162.62890625 C-25.07193359 161.32969238 -24.84699219 160.03047852 -24.61523438 158.69189453 C-23.77702441 153.66196949 -23.08738276 148.61967642 -22.4375 143.5625 C-21.3572008 135.22228259 -19.97331236 126.96530179 -18.48242188 118.68945312 C-17.09660912 110.86837194 -16.05226246 103.02756933 -15.07641602 95.14624023 C-14.37659965 89.59404524 -13.53227924 84.11263246 -12.4375 78.625 C-11.40585341 73.40827163 -10.62559783 68.22267287 -10.0625 62.9375 C-9.24543567 55.33292164 -7.96729367 47.85156185 -6.60839844 40.3269043 C-4.93585257 30.93473694 -3.59858082 21.50282045 -2.30712891 12.05151367 C-2.15034668 10.91560791 -1.99356445 9.77970215 -1.83203125 8.609375 C-1.69514893 7.59842773 -1.5582666 6.58748047 -1.41723633 5.54589844 C-1 3 -1 3 0 0 Z M1 23 C-1.22299625 34.39858732 -3.19566564 45.77712039 -4.5625 57.3125 C-5.41879608 64.53318964 -6.39915392 71.6606106 -7.73681641 78.80834961 C-9.17004815 86.63284795 -10.29054161 94.50465565 -11.4375 102.375 C-11.54526764 103.11309906 -11.65303528 103.85119812 -11.7640686 104.61166382 C-12.69813657 111.01205617 -13.62589204 117.41335798 -14.55175781 123.81494141 C-17.68674129 145.45577365 -17.68674129 145.45577365 -19.55151367 155.88134766 C-20.05700301 158.71914016 -20.53958473 161.56013347 -21.01953125 164.40234375 C-21.6583724 168.16776407 -22.39934868 171.89467047 -23.19921875 175.62890625 C-26.14253806 190.71795987 -23.24041852 202.02101298 -17.9543457 216.30200195 C-16.70632679 219.83023348 -15.85871716 223.3581192 -15 227 C-14.24890063 229.48521651 -13.4775563 231.96439215 -12.6875 234.4375 C-10.70047652 240.71169056 -8.80153351 247.00631023 -6.95703125 253.32373047 C-4.35432168 262.23064458 -1.67398685 271.11427738 1 280 C1.66 279.67 2.32 279.34 3 279 C3.78846272 276.60503076 3.78846272 276.60503076 4.39453125 273.6953125 C5.89595645 267.32671245 7.73212013 261.11700655 9.6875 254.875 C10.39588469 252.59246385 11.10421646 250.30991128 11.8125 248.02734375 C12.1734375 246.86831543 12.534375 245.70928711 12.90625 244.51513672 C14.67656153 238.82563997 16.43317268 233.13194259 18.1875 227.4375 C18.51975586 226.36032715 18.85201172 225.2831543 19.19433594 224.17333984 C21.37106437 217.0984288 23.49826907 210.01084965 25.54174805 202.89624023 C26.89802148 198.20395703 26.89802148 198.20395703 28 196 C28.43523167 188.8688964 27.09210216 182.23435975 25.75 175.25 C23.98486298 165.73031348 22.38438124 156.21634062 21.0625 146.625 C19.5730665 135.87580078 17.95527845 125.15407604 16.25 114.4375 C16.06552307 113.27704163 16.06552307 113.27704163 15.87731934 112.09313965 C15.3549921 108.80798952 14.83235045 105.52288973 14.30911255 102.23788452 C12.63733026 91.73606212 10.98720857 81.23083826 9.33850098 70.72537231 C8.82757562 67.47102445 8.31568169 64.21683002 7.80371094 60.96264648 C5.81680702 48.31604447 3.87967595 35.66298761 2 23 C1.67 23 1.34 23 1 23 Z " fill="#EFF1F0" transform="translate(285,121)"/>
<path d="M0 0 C4.58450152 3.74245022 8.53203362 7.59157129 12.35546875 12.10546875 C13.81702458 13.78920884 15.32643266 15.33654415 16.9375 16.875 C19 19 19 19 19 21 C19.59683594 21.26039062 20.19367188 21.52078125 20.80859375 21.7890625 C23.16106783 23.08900361 24.36050785 24.3117154 26.0625 26.375 C29.19411035 30.07599405 32.40865476 33.67993255 35.6875 37.25 C36.3827478 38.01062744 36.3827478 38.01062744 37.09204102 38.78662109 C39.12160201 40.99836431 41.16395749 43.15709159 43.33203125 45.234375 C45 47 45 47 45 49 C45.99 49.33 46.98 49.66 48 50 C49.60546875 51.55859375 49.60546875 51.55859375 51.1875 53.4375 C51.71730469 54.05496094 52.24710938 54.67242187 52.79296875 55.30859375 C54 57 54 57 54 59 C54.59167969 59.25523438 55.18335938 59.51046875 55.79296875 59.7734375 C58.22592458 61.12555809 59.53495057 62.49533457 61.3125 64.625 C61.91449219 65.33527344 62.51648438 66.04554687 63.13671875 66.77734375 C64.05904297 67.87755859 64.05904297 67.87755859 65 69 C69.41527928 74.13076163 73.8909716 79.07698184 78.828125 83.71875 C79.46234375 84.3271875 80.0965625 84.935625 80.75 85.5625 C81.63945313 86.39974609 81.63945313 86.39974609 82.546875 87.25390625 C84.14508731 89.17433878 84.59420545 90.55989329 85 93 C82.32336523 94.33831739 81.20628327 93.73136392 78.328125 92.99609375 C77.36414795 92.75286377 76.4001709 92.50963379 75.40698242 92.2590332 C74.36517822 91.98792725 73.32337402 91.71682129 72.25 91.4375 C71.18048096 91.16446045 70.11096191 90.8914209 69.0090332 90.61010742 C59.167295 88.08177509 49.3332563 85.49287994 39.56787109 82.68212891 C37.74914158 82.19900186 35.90946183 81.79182117 34.06103516 81.43896484 C26.8204948 79.92896976 26.8204948 79.92896976 24.52636719 77.33154297 C23.45478114 75.25233852 22.70149834 73.23023997 22 71 C21.74718262 70.33210449 21.49436523 69.66420898 21.23388672 68.97607422 C20.41876859 66.81122398 19.67451987 64.63012259 18.9375 62.4375 C18.33557529 60.68327097 17.73263812 58.92938915 17.12890625 57.17578125 C16.63028076 55.72292725 16.63028076 55.72292725 16.12158203 54.24072266 C14.14630409 48.53331311 12.11950973 42.84411836 10.09622192 37.15359497 C9.39548243 35.18261133 8.69554412 33.21134506 7.99584961 31.23999023 C7.77225266 30.61058029 7.5486557 29.98117035 7.31828308 29.33268738 C6.65443474 27.46221049 5.99273477 25.59097157 5.33105469 23.71972656 C4.42128146 21.17730086 3.49832696 18.64468275 2.55175781 16.11621094 C1.86484863 14.26044434 1.86484863 14.26044434 1.1640625 12.3671875 C0.74850098 11.2622998 0.33293945 10.15741211 -0.09521484 9.01904297 C-0.95965279 6.13462862 -1.27271756 3.98507889 -1 1 C-0.67 0.67 -0.34 0.34 0 0 Z " fill="#FAFBFB" transform="translate(461,17)"/>
<path d="M0 0 C0.99 0.33 1.98 0.66 3 1 C0.55276895 9.31364306 -1.90995834 17.52087674 -5.3125 25.5 C-7.67398846 31.07141589 -9.70999736 36.71563211 -11.6940918 42.4284668 C-13.66389079 48.08951151 -15.74626473 53.70063945 -17.88378906 59.30029297 C-19.81169757 64.38818396 -21.48765069 69.52938632 -23.04296875 74.7421875 C-24 77 -24 77 -27 79 C-29.25491686 79.68019039 -31.52938983 80.29645271 -33.8125 80.875 C-35.18646661 81.22942878 -36.56015976 81.5849191 -37.93359375 81.94140625 C-38.62308105 82.11945801 -39.31256836 82.29750977 -40.02294922 82.48095703 C-42.81963594 83.21518227 -45.59707706 84.0104479 -48.375 84.8125 C-55.30904366 86.80393815 -62.24582313 88.78530942 -69.1875 90.75 C-70.2997998 91.06815674 -71.41209961 91.38631348 -72.55810547 91.71411133 C-74.12842529 92.15726685 -74.12842529 92.15726685 -75.73046875 92.609375 C-76.67301514 92.87717773 -77.61556152 93.14498047 -78.58666992 93.42089844 C-81 94 -81 94 -84 94 C-83.67 92.35 -83.34 90.7 -83 89 C-81.515 88.505 -81.515 88.505 -80 88 C-79.29605388 86.68596724 -78.63654342 85.3479743 -78 84 C-75.28945705 80.35478707 -72.34249559 77.07861436 -69 74 C-68.34 74 -67.68 74 -67 74 C-66.7525 73.443125 -66.505 72.88625 -66.25 72.3125 C-63.64359067 67.49064273 -59.88950037 63.80306703 -56 60 C-54.45515217 58.48239817 -52.91374891 56.96128539 -51.375 55.4375 C-50.61960938 54.69371094 -49.86421875 53.94992188 -49.0859375 53.18359375 C-46.97145479 51.06889232 -46.97145479 51.06889232 -45.3515625 48.72265625 C-44.90554687 48.15417969 -44.45953125 47.58570313 -44 47 C-43.34 47 -42.68 47 -42 47 C-41.62294922 46.14728516 -41.62294922 46.14728516 -41.23828125 45.27734375 C-39.82945546 42.68634868 -38.16725262 40.74666303 -36.1875 38.5625 C-35.47078125 37.77101562 -34.7540625 36.97953125 -34.015625 36.1640625 C-31.73504585 33.71553373 -29.36590575 31.36590575 -27 29 C-25.16726826 26.87115003 -23.34950593 24.73189071 -21.55078125 22.57421875 C-20.78314453 21.79498047 -20.78314453 21.79498047 -20 21 C-19.34 21 -18.68 21 -18 21 C-17.73832031 20.42121094 -17.47664063 19.84242187 -17.20703125 19.24609375 C-14.06869178 13.40614167 -8.71039044 8.58308259 -4 4 C-2.8553125 2.8553125 -2.8553125 2.8553125 -1.6875 1.6875 C-1.130625 1.130625 -0.57375 0.57375 0 0 Z " fill="#FBFBFB" transform="translate(112,17)"/>
<path d="M0 0 C9.85723081 -0.11575743 19.71430043 -0.20464577 29.57207203 -0.25906086 C34.14928474 -0.28517521 38.7260331 -0.32060617 43.30297852 -0.37719727 C47.71854412 -0.43145246 52.1336626 -0.46140668 56.54953575 -0.47438622 C58.23573537 -0.48363788 59.92191001 -0.50170429 61.60791969 -0.52865028 C63.96677492 -0.56485657 66.32377377 -0.56994922 68.68286133 -0.56762695 C69.38273163 -0.58560333 70.08260193 -0.60357971 70.80368042 -0.62210083 C72.75398254 -0.60127258 72.75398254 -0.60127258 76 0 C78.46176542 3.0939979 79.68454372 6.47681707 81 10.1875 C81.309375 11.04730469 81.61875 11.90710938 81.9375 12.79296875 C82.74823488 15.2400766 83.49246658 17.67838913 84.2109375 20.15234375 C86.46714862 27.73775943 89.11577748 35.19475273 91.69470215 42.67489624 C96.54208215 56.74396988 101.29885452 70.83113682 105.80712891 85.01293945 C109.66890741 97.15110962 113.71677047 109.22536194 117.76367188 121.30273438 C118.9885177 124.96566194 120.20644242 128.63081414 121.421875 132.296875 C122.19785664 134.63543659 122.97389687 136.97397873 123.75 139.3125 C124.11931641 140.4267334 124.48863281 141.5409668 124.86914062 142.68896484 C126.48331566 147.53803389 128.11670999 152.37512621 129.859375 157.1796875 C130.13942383 157.95272217 130.41947266 158.72575684 130.70800781 159.5222168 C131.20970668 160.89384666 131.71860099 162.26288386 132.23730469 163.62817383 C133.88544252 168.11483809 134.54144764 172.27378423 135 177 C131.94011645 176.69264563 131.06140886 176.0704043 129 173.70703125 C128.34 172.75183594 127.68 171.79664063 127 170.8125 C126.30261719 169.81605469 125.60523438 168.81960938 124.88671875 167.79296875 C123.50612658 165.74923501 122.14624929 163.69911624 120.8125 161.625 C119.07991759 158.93210226 119.07991759 158.93210226 116.70703125 156.78125 C113.69439124 153.68601236 111.31690344 150.42210745 108.875 146.875 C105.27555749 141.65983537 105.27555749 141.65983537 101 137 C100 135.33333333 99 133.66666667 98 132 C97.443125 131.46375 96.88625 130.9275 96.3125 130.375 C95 129 95 129 95 126 C93.515 125.505 93.515 125.505 92 125 C90.28125 122.8203125 90.28125 122.8203125 88.5 120.125 C86.50227929 117.11965701 84.58369593 114.51029548 82 112 C81 110.33333333 80 108.66666667 79 107 C78.505 106.505 78.01 106.01 77.5 105.5 C75.55938829 103.55938829 74.4022047 101.35570389 73 99 C71.24406631 96.69912137 69.42216994 94.48216251 67.515625 92.3046875 C64.62654209 89.00083526 62.2062326 85.8107654 60 82 C58.67622628 80.3257304 57.34110685 78.66041801 56 77 C54.39140929 74.91987935 52.78686885 72.83717015 51.1875 70.75 C47.73302507 66.2488878 44.26503173 61.75931681 40.765625 57.29296875 C39.22836386 55.29656988 37.71275208 53.28682492 36.203125 51.26953125 C32.99918895 46.9895057 29.75336615 42.7425131 26.5 38.5 C21.49248632 31.97001186 16.53520211 25.40524684 11.62109375 18.8046875 C6.95998924 12.50671351 6.95998924 12.50671351 1.9375 6.5 C0 4 0 4 0 0 Z M8 5 C11.67352766 10.51029149 14.8947622 15.27432412 19.125 20.1875 C22.38719189 23.98322795 25.25970007 27.81358697 28 32 C29.08635595 33.4510069 30.18966812 34.88953168 31.3125 36.3125 C31.91320312 37.07820313 32.51390625 37.84390625 33.1328125 38.6328125 C33.74898437 39.41398437 34.36515625 40.19515625 35 41 C41.87286293 49.71329484 41.87286293 49.71329484 44.3125 53.5625 C44.869375 54.366875 45.42625 55.17125 46 56 C46.66 56 47.32 56 48 56 C48.23976562 56.70511719 48.47953125 57.41023438 48.7265625 58.13671875 C50.21229702 61.47734268 52.10215106 63.94753345 54.375 66.8125 C55.27967991 67.9640321 56.18327761 69.11641502 57.0859375 70.26953125 C57.5612793 70.87490723 58.03662109 71.4802832 58.52636719 72.10400391 C61.06344038 75.36823692 63.52865664 78.6858999 66 82 C69.75721471 87.02708103 73.54077178 92.03138473 77.375 97 C80.11626473 100.55349132 82.85635438 104.10716008 85.5625 107.6875 C86.01753906 108.28949219 86.47257812 108.89148438 86.94140625 109.51171875 C88 111 88 111 89 113 C89.66 113 90.32 113 91 113 C91.27972656 113.57621094 91.55945313 114.15242188 91.84765625 114.74609375 C92.95880369 116.91942281 94.15384584 118.98705916 95.4375 121.0625 C95.84871094 121.73410156 96.25992188 122.40570313 96.68359375 123.09765625 C97.97967454 124.9706276 99.37488248 126.41297118 101 128 C101.87605896 129.10803718 102.72858785 130.23490517 103.5625 131.375 C106.86051747 135.83898324 110.25178549 140.22716288 113.66040039 144.60693359 C116.89077835 148.78155671 116.89077835 148.78155671 118 151 C118.66 151 119.32 151 120 151 C120.28875 151.804375 120.5775 152.60875 120.875 153.4375 C121.73262568 156.1326468 121.73262568 156.1326468 124 157 C121.57982484 147.27816699 118.29371741 137.88761519 115 128.4375 C108.95542249 111.05479349 108.95542249 111.05479349 106.796875 103.6418457 C104.84594022 97.17399483 102.64249067 90.78148629 100.5 84.375 C100.11015427 83.20679214 100.11015427 83.20679214 99.71243286 82.01498413 C94.62489893 66.77256403 89.42030604 51.57147981 84.15991211 36.38793945 C80.59438304 25.97353261 77.31679065 15.50317038 74 5 C52.22 5 30.44 5 8 5 Z " fill="#EFF1F0" transform="translate(97,109)"/>
<path d="M0 0 C3.99978156 1.39560723 6.91724296 3.27544951 10.25 5.875 C15.25332305 9.70759475 20.33612895 13.38695659 25.5 17 C32.43993236 21.86742564 39.25296494 26.86728621 46 32 C50.95289937 35.74392394 55.93815934 39.44340984 60.9375 43.125 C61.88181885 43.82290649 61.88181885 43.82290649 62.84521484 44.53491211 C66.43537029 47.17295014 70.06157461 49.73916348 73.75 52.23828125 C74.53125244 52.77243652 75.31250488 53.3065918 76.11743164 53.85693359 C77.64273137 54.89605708 79.17564149 55.92411197 80.71655273 56.93994141 C81.40692627 57.41222168 82.0972998 57.88450195 82.80859375 58.37109375 C83.42532959 58.78286865 84.04206543 59.19464355 84.67749023 59.61889648 C86 61 86 61 86 65 C66.86 65 47.72 65 28 65 C19.29794521 47.59589041 19.29794521 47.59589041 16.08203125 40.37890625 C15.08973999 38.19729838 14.03445697 36.0678836 12.9375 33.9375 C11.04730815 30.21784536 9.52203035 26.39408522 8 22.51171875 C5.8343801 17.07229064 3.4328445 11.79492711 0.6875 6.625 C-1 3 -1 3 0 0 Z " fill="#FBFBFB" transform="translate(373,31)"/>
<path d="M0 0 C30.03 0 60.06 0 91 0 C89.71878776 5.76545508 88.42172745 11.1605871 86.53125 16.69921875 C86.29479767 17.4043309 86.05834534 18.10944305 85.81472778 18.83592224 C85.04735527 21.12122061 84.27369805 23.40433633 83.5 25.6875 C82.9609555 27.28939261 82.42238762 28.89144567 81.88427734 30.49365234 C80.78909698 33.75311478 79.69177234 37.0118427 78.59277344 40.27001953 C76.25165382 47.21550587 73.93914216 54.17049039 71.625 61.125 C70.81134153 63.56645412 69.9975453 66.00786233 69.18359375 68.44921875 C68.80960449 69.57118652 68.43561523 70.6931543 68.05029297 71.84912109 C65.22265625 80.33203125 65.22265625 80.33203125 64.43188477 82.70410156 C63.94389566 84.16822892 63.45609593 85.6324194 62.96850586 87.09667969 C61.93141387 90.21053456 60.89116728 93.32318905 59.84375 96.43359375 C57.00927813 104.86997793 54.27903073 113.33748422 51.5625 121.8125 C43.3008835 147.57020322 43.3008835 147.57020322 39.37109375 158.58984375 C39.09998779 159.35014893 38.82888184 160.1104541 38.54956055 160.89379883 C38.03816008 162.3208794 37.52305198 163.74664022 37.00317383 165.1706543 C35.36261202 169.72827451 34.1131784 174.28474433 33 179 C31.68 179 30.36 179 29 179 C27.71816305 173.78109241 26.78733277 168.64664425 26.125 163.3125 C25.31137215 156.91238804 24.24208925 150.59235732 23.0625 144.25 C21.64604638 136.6263 20.32897669 128.99958951 19.14697266 121.33618164 C18.13281017 114.77697285 17.04079948 108.23225627 15.9375 101.6875 C14.88302799 95.42510789 13.85174405 89.1688609 13 82.875 C12.21982655 77.21704645 11.22581382 71.6148468 10.1875 66 C8.53866147 57.05252246 6.95695901 48.09539736 5.4375 39.125 C5.23987061 37.98160156 5.04224121 36.83820313 4.83862305 35.66015625 C2.84548182 23.79492987 1.49726407 11.97811255 0 0 Z M5 4 C7.33179311 20.32255174 9.71734093 36.30280242 12.78515625 52.453125 C14.12955655 59.59387413 15.28187539 66.75844597 16.40795898 73.9362793 C17.78135312 82.67910536 19.21405849 91.4111319 20.66921997 100.14065552 C20.92601063 101.68118028 21.18243573 103.22176602 21.43844604 104.76242065 C23.08596014 114.67727138 23.08596014 114.67727138 24.8137207 124.57836914 C24.94810043 125.33069824 25.08248016 126.08302734 25.22093201 126.8581543 C25.4749917 128.27397774 25.73097309 129.68945848 25.98939514 131.10449219 C26.84645027 135.87097668 27.48800281 140.63070599 28.0625 145.4375 C28.96627635 154.32832653 28.96627635 154.32832653 31 163 C31.66 163.33 32.32 163.66 33 164 C33.32613281 162.87722656 33.65226562 161.75445312 33.98828125 160.59765625 C34.42959807 159.08591139 34.87100942 157.57419412 35.3125 156.0625 C35.52583984 155.32708984 35.73917969 154.59167969 35.95898438 153.83398438 C37.51631605 148.51116417 39.22642141 143.25412745 41 138 C41.63510979 136.08626749 42.26916365 134.17218433 42.90234375 132.2578125 C43.58070809 130.21353467 44.25909382 128.16926394 44.9375 126.125 C45.43926758 124.60712891 45.43926758 124.60712891 45.95117188 123.05859375 C47.92236306 117.12602992 49.99109146 111.24068818 52.14477539 105.37207031 C53.10492598 102.70897493 53.95412003 100.0290495 54.75 97.3125 C56.65852335 91.00314634 58.72214163 84.75131747 60.8125 78.5 C61.15732422 77.46875 61.50214844 76.4375 61.85742188 75.375 C63.23093885 71.27228696 64.60711391 67.17046909 65.98388672 63.06884766 C69.07874692 53.84473219 72.15496592 44.62709556 74.96875 35.3125 C76.50205494 30.38733868 78.15098467 25.50160477 79.80688477 20.61645508 C81.66595982 15.10404515 83.32544805 9.58183983 85 4 C58.6 4 32.2 4 5 4 Z " fill="#F0F2F1" transform="translate(299,108)"/>
<path d="M0 0 C1.44850604 3.10394152 2.2575685 6.0912418 2.875 9.4375 C3.65369206 13.56213448 4.69011343 17.53573703 5.875 21.5625 C7.39132073 26.74372876 8.73097248 31.9284022 9.9375 37.1875 C11.49627954 43.96880469 13.20979297 50.6958018 15.00366211 57.41845703 C17.01040955 64.96674521 18.88659023 72.54556629 20.75585938 80.12890625 C22.5132407 87.20407781 24.40398316 94.23049595 26.52734375 101.20532227 C27.80720547 105.58259767 28.20124958 109.44820807 28 114 C23.6169837 113.55358167 21.80513976 110.93917675 19 107.75 C18.02655814 106.65579031 17.05258048 105.5620571 16.078125 104.46875 C15.57474609 103.89898437 15.07136719 103.32921875 14.55273438 102.7421875 C11.99456407 99.87188824 9.36865637 97.06500393 6.75 94.25 C2.89577712 90.0886947 -0.90352508 85.89105729 -4.59765625 81.5859375 C-5.99852363 79.95314826 -5.99852363 79.95314826 -7.68359375 78.4140625 C-9 77 -9 77 -9 75 C-9.99 74.67 -10.98 74.34 -12 74 C-13.7890625 72.2578125 -13.7890625 72.2578125 -15.625 70.125 C-16.54152344 69.07699219 -16.54152344 69.07699219 -17.4765625 68.0078125 C-19 66 -19 66 -20 63 C-20.59554687 62.71253906 -21.19109375 62.42507812 -21.8046875 62.12890625 C-24.75260215 60.61298573 -26.13422297 58.56789931 -28.125 55.9375 C-30.60931622 52.4287459 -30.60931622 52.4287459 -34 50 C-34 49.34 -34 48.68 -34 48 C-35.485 47.505 -35.485 47.505 -37 47 C-37 46.01 -37 45.02 -37 44 C-37.55429687 43.78214844 -38.10859375 43.56429687 -38.6796875 43.33984375 C-41.730692 41.57806842 -43.82240075 39.17572827 -46.125 36.5625 C-47.0907269 35.48009483 -48.05688312 34.39807257 -49.0234375 33.31640625 C-49.51295898 32.7661377 -50.00248047 32.21586914 -50.50683594 31.64892578 C-51.96751977 30.03586845 -53.46237479 28.46513378 -54.9765625 26.90234375 C-55.44304199 26.4137085 -55.90952148 25.92507324 -56.39013672 25.42163086 C-57.68614297 24.06675754 -58.99128408 22.72063972 -60.296875 21.375 C-60.85890625 20.59125 -61.4209375 19.8075 -62 19 C-61.60644531 16.8515625 -61.60644531 16.8515625 -61 15 C-59.83726563 14.69707031 -58.67453125 14.39414063 -57.4765625 14.08203125 C-49.23737593 11.92826222 -41.01086474 9.74219245 -32.8125 7.4375 C-26.24773883 5.592946 -19.6610217 3.87206368 -13.03637695 2.25561523 C-3.43170554 -0.0927488 -3.43170554 -0.0927488 0 0 Z M-16.625 8.1875 C-29.25754882 12.03146553 -41.99476237 15.65479321 -55 18 C-51.27447258 23.48611422 -47.00310882 28.08725013 -42.25415039 32.70678711 C-38.18581317 36.70880401 -34.59561767 41.00177977 -31.0703125 45.4921875 C-28.85850619 48.17139439 -26.46720652 50.55532504 -24 53 C-21.38339294 55.9069053 -18.79263951 58.83504032 -16.20703125 61.76953125 C-15.47871094 62.50558594 -14.75039062 63.24164063 -14 64 C-13.34 64 -12.68 64 -12 64 C-11.938125 64.5775 -11.87625 65.155 -11.8125 65.75 C-10.66958051 68.91500782 -8.65236603 69.92423528 -6 72 C-4.99655308 73.08214864 -4.02033172 74.18977573 -3.0625 75.3125 C0.55487218 79.54474559 4.32490416 83.62002107 8.125 87.6875 C9.02206665 88.65006714 9.02206665 88.65006714 9.93725586 89.63208008 C13.2307521 93.15334484 16.56809944 96.61342643 20 100 C19.49341729 93.66771609 17.8902834 87.94192381 16.09375 81.859375 C14.9875445 78.04180567 14.07018874 74.18701918 13.1875 70.3125 C11.16755106 61.48338508 8.86958817 52.73157351 6.57592773 43.97021484 C4.88241677 37.47697459 3.25061183 30.97797339 1.75 24.4375 C0.24866701 14.53980962 0.24866701 14.53980962 -4 6 C-8.49211875 5.57097742 -12.39511123 6.85502374 -16.625 8.1875 Z " fill="#EDEFEE" transform="translate(88,109)"/>
<path d="M0 0 C5.08216549 0.4694589 9.86494938 1.3478545 14.8125 2.625 C15.46557129 2.79249756 16.11864258 2.95999512 16.79150391 3.13256836 C18.30282835 3.52118009 19.81352732 3.91222911 21.32373047 4.30517578 C24.44451061 5.11540569 27.56794245 5.91502315 30.69140625 6.71484375 C33.08603744 7.33034046 35.48056836 7.94622745 37.875 8.5625 C39.58586792 9.00166748 39.58586792 9.00166748 41.33129883 9.44970703 C47.93427488 11.15882588 54.48537955 12.97926978 61 15 C60.142028 19.29854981 57.85016965 21.98142801 55.0625 25.25 C54.60681641 25.80429688 54.15113281 26.35859375 53.68164062 26.9296875 C52.50402435 28.32972324 51.25651038 29.67031514 50 31 C49.34 31 48.68 31 48 31 C47.59817505 31.88510254 47.59817505 31.88510254 47.18823242 32.78808594 C45.98826517 35.02184458 44.73387987 36.56273425 42.98828125 38.390625 C42.39885742 39.01356445 41.80943359 39.63650391 41.20214844 40.27832031 C40.57856445 40.92897461 39.95498047 41.57962891 39.3125 42.25 C38.03166262 43.6033254 36.75170356 44.95748265 35.47265625 46.3125 C34.86437988 46.95574219 34.25610352 47.59898437 33.62939453 48.26171875 C31.79248309 50.22138454 30.0066868 52.21816949 28.25 54.25 C25.41989848 57.52162631 22.56920033 60.77372624 19.6875 64 C18.84574219 64.94875 18.00398438 65.8975 17.13671875 66.875 C15 69 15 69 13 69 C12.7525 69.56203125 12.505 70.1240625 12.25 70.703125 C10.78725133 73.39092569 9.03195127 75.46405482 7 77.75 C6.29875 78.54921875 5.5975 79.3484375 4.875 80.171875 C3 82 3 82 1 82 C0.6596875 83.0828125 0.6596875 83.0828125 0.3125 84.1875 C-1.28723852 87.61551111 -3.25870939 89.37789594 -6 92 C-8.09641454 94.38613018 -10.16892297 96.79072615 -12.23046875 99.20703125 C-12.81441406 99.79871094 -13.39835937 100.39039063 -14 101 C-14.66 101 -15.32 101 -16 101 C-16.24492187 101.56203125 -16.48984375 102.1240625 -16.7421875 102.703125 C-18.22926539 105.41865854 -20.04062782 107.46391438 -22.125 109.75 C-22.84945313 110.54921875 -23.57390625 111.3484375 -24.3203125 112.171875 C-24.87460937 112.77515625 -25.42890625 113.3784375 -26 114 C-27.32 113.67 -28.64 113.34 -30 113 C-29.80664062 112.32195312 -29.61328125 111.64390625 -29.4140625 110.9453125 C-29.15367187 110.01460938 -28.89328125 109.08390625 -28.625 108.125 C-28.36976563 107.22007812 -28.11453125 106.31515625 -27.8515625 105.3828125 C-27.19258196 102.76502741 -26.64879387 100.19588685 -26.15234375 97.546875 C-24.93540655 91.34304019 -23.21948074 85.28397328 -21.51724243 79.20010376 C-17.90958091 66.28700376 -14.52889561 53.3282395 -11.3125 40.3125 C-8.79109914 30.12283876 -6.25061956 19.94345273 -3.5 9.8125 C-3.25677002 8.90991455 -3.01354004 8.0073291 -2.76293945 7.07739258 C-1.12590789 1.12590789 -1.12590789 1.12590789 0 0 Z M3 6 C2.76925781 6.88558594 2.53851563 7.77117187 2.30078125 8.68359375 C0.47534873 15.61735125 -1.4326209 22.50945595 -3.5 29.375 C-5.29420257 35.37157295 -6.82782161 41.37752855 -8.19482422 47.48852539 C-9.38988932 52.69259668 -10.75744479 57.84220873 -12.1796875 62.98828125 C-12.37816284 63.7074472 -12.57663818 64.42661316 -12.78112793 65.16757202 C-13.78728485 68.80576181 -14.80215909 72.44129195 -15.82714844 76.07421875 C-18.03913201 83.98874791 -19.87484102 91.84598644 -21 100 C-20.47269287 99.5781543 -19.94538574 99.15630859 -19.40209961 98.72167969 C-18.14436849 97.71549479 -16.88663737 96.7093099 -15.62890625 95.703125 C-13.84160205 94.12630455 -13.84160205 94.12630455 -13.52734375 91.921875 C-13.35332031 91.28765625 -13.17929687 90.6534375 -13 90 C-11.68609493 89.29581558 -10.34871587 88.63497066 -9 88 C-7.50536808 86.51365624 -6.07240882 84.96407833 -4.6875 83.375 C-3.96949219 82.55773437 -3.25148438 81.74046875 -2.51171875 80.8984375 C-1.14390109 79.32002272 0.22358264 77.74131729 1.58935547 76.16113281 C6.38643886 70.63901881 11.36481777 65.30971815 16.39453125 60 C20.7088 55.42669648 24.8911541 50.75851268 29 46 C30.20833333 44.60416667 31.41666667 43.20833333 32.625 41.8125 C33.15351562 41.20019531 33.68203125 40.58789062 34.2265625 39.95703125 C36.40424845 37.55390204 38.70512012 35.29153944 41 33 C43.12582473 30.79076287 45.22213537 28.55526059 47.3125 26.3125 C47.86228516 25.73177734 48.41207031 25.15105469 48.97851562 24.55273438 C51.98783128 21.74258691 51.98783128 21.74258691 53 18 C52.1342334 17.77860352 51.2684668 17.55720703 50.37646484 17.32910156 C47.09204791 16.48819982 43.80809348 15.64553304 40.52441406 14.80175781 C39.11671143 14.44039844 37.70883986 14.07969635 36.30078125 13.71972656 C34.2495244 13.19519088 32.19882891 12.66853317 30.1484375 12.140625 C29.46964539 11.96615845 28.79085327 11.79169189 28.0914917 11.61193848 C22.34321902 10.12021901 16.65671644 8.45510184 10.97509766 6.72558594 C8.17872635 6.04358893 5.86163804 5.8527732 3 6 Z " fill="#EEF0EF" transform="translate(487,109)"/>
<path d="M0 0 C0.77538723 1.35156429 1.54503617 2.70642085 2.3125 4.0625 C2.95638672 5.19365234 2.95638672 5.19365234 3.61328125 6.34765625 C4.9332198 8.87227111 6.04562429 11.44069309 7.15943909 14.06071472 C8.56160013 17.29568583 10.07351853 20.47763587 11.58203125 23.6640625 C11.91869308 24.37799164 12.25535492 25.09192078 12.60221863 25.82748413 C13.67115655 28.09387039 14.74171825 30.35948437 15.8125 32.625 C18.22552088 37.7346008 20.6347751 42.84593644 23.03814697 47.96008301 C23.96954457 49.93540952 24.90867507 51.90689864 25.84912109 53.87792969 C26.67210693 55.62058105 26.67210693 55.62058105 27.51171875 57.3984375 C27.99471436 58.41341309 28.47770996 59.42838867 28.9753418 60.47412109 C30 63 30 63 30 66 C10.11815016 67.01295062 -9.77380237 67.13912312 -29.67674255 67.18167114 C-31.75509961 67.18751434 -33.83340625 67.19723203 -35.91174316 67.20800781 C-39.85263517 67.22777305 -43.7934309 67.23016703 -47.734375 67.23046875 C-49.54500427 67.2411866 -49.54500427 67.2411866 -51.39221191 67.25212097 C-52.49738159 67.24908463 -53.60255127 67.24604828 -54.74121094 67.24291992 C-55.71217712 67.24434494 -56.68314331 67.24576996 -57.68353271 67.24723816 C-60 67 -60 67 -62 65 C-60.7260411 62.96166576 -59.38938077 60.96147874 -58 59 C-57.34 59 -56.68 59 -56 59 C-55.773125 58.46375 -55.54625 57.9275 -55.3125 57.375 C-52.4358719 52.16967296 -48.16874988 48.16874988 -44 44 C-41.90854271 41.6097631 -39.83097124 39.20914985 -37.76953125 36.79296875 C-37.18558594 36.20128906 -36.60164063 35.60960937 -36 35 C-35.34 35 -34.68 35 -34 35 C-33.7628125 34.44828125 -33.525625 33.8965625 -33.28125 33.328125 C-31.68754857 30.43225289 -29.71082727 28.20487963 -27.5 25.75 C-26.7059375 24.85796875 -25.911875 23.9659375 -25.09375 23.046875 C-23 21 -23 21 -21 21 C-20.77957031 20.46246094 -20.55914062 19.92492187 -20.33203125 19.37109375 C-18.54948697 16.19806038 -16.1640849 13.69695486 -13.6875 11.0625 C-13.21376953 10.55009766 -12.74003906 10.03769531 -12.25195312 9.50976562 C-10.84565061 7.99572994 -9.42343726 6.49791078 -8 5 C-7.11957031 4.04996094 -6.23914063 3.09992187 -5.33203125 2.12109375 C-3 0 -3 0 0 0 Z M-5.5625 9.375 C-8.22681703 11.64723409 -8.22681703 11.64723409 -8 14 C-8.85851562 14.35578125 -8.85851562 14.35578125 -9.734375 14.71875 C-12.4879292 16.27593238 -14.16795634 18.12492797 -16.25 20.5 C-16.95640625 21.2940625 -17.6628125 22.088125 -18.390625 22.90625 C-20.20314159 24.82414631 -20.20314159 24.82414631 -20 27 C-20.99 27.33 -21.98 27.66 -23 28 C-24.51214976 29.45340735 -24.51214976 29.45340735 -26 31.3125 C-29.08531909 34.95343799 -32.26189628 38.4950408 -35.5 42 C-39.25336145 46.07247057 -42.94385857 50.19005969 -46.5625 54.3828125 C-47.79457575 55.76889772 -49.1092382 57.0807962 -50.4375 58.375 C-52.23103624 59.86455501 -52.23103624 59.86455501 -52 62 C-27.25 62 -2.5 62 23 62 C22.04318606 58.17274425 20.75381894 55.10265066 19.0859375 51.5390625 C18.79320953 50.91204437 18.50048157 50.28502625 18.19888306 49.63900757 C17.57682437 48.30851433 16.95303329 46.97882988 16.32763672 45.64990234 C15.39533436 43.66822225 14.46866688 41.68399091 13.54296875 39.69921875 C10.00426055 32.13481982 6.35354255 24.63926887 2.56494141 17.19677734 C0.92043491 13.83746875 -0.55390953 10.44853693 -2 7 C-3.46007099 6.88670589 -3.46007099 6.88670589 -5.5625 9.375 Z " fill="#EFF1F0" transform="translate(360,30)"/>
<path d="M0 0 C0.99 0.33 1.98 0.66 3 1 C0.92270442 5.7000263 -1.17438482 10.38979794 -3.3125 15.0625 C-4.77308917 18.25976532 -6.2069376 21.4654994 -7.59375 24.6953125 C-11.08084005 32.80604055 -14.78417879 40.74069354 -18.8125 48.59765625 C-21.99678084 55.00602144 -24.97387733 61.51545141 -28 68 C-49.12 68 -70.24 68 -92 68 C-90.86363784 63.45455136 -90.32338437 63.13289634 -86.5625 60.75 C-85.35787109 59.96882813 -85.35787109 59.96882813 -84.12890625 59.171875 C-82 58 -82 58 -80 58 C-80 57.34 -80 56.68 -80 56 C-77 54 -77 54 -74 54 C-74 53.34 -74 52.68 -74 52 C-72.27956284 50.72093154 -70.49491932 49.52789009 -68.6875 48.375 C-64.50174229 45.65499528 -60.40115952 42.89232093 -56.375 39.9375 C-49.12594162 34.62641243 -49.12594162 34.62641243 -45.625 32.125 C-44.85414063 31.57070313 -44.08328125 31.01640625 -43.2890625 30.4453125 C-40.93121763 28.95657086 -38.61550312 27.95193223 -36 27 C-36 26.34 -36 25.68 -36 25 C-34.62890625 23.9140625 -34.62890625 23.9140625 -32.5625 22.625 C-27.80358907 19.5603216 -23.17884404 16.33576048 -18.5625 13.0625 C-17.82378662 12.54163818 -17.08507324 12.02077637 -16.32397461 11.48413086 C-13.12392311 9.22604287 -9.93911994 6.95517215 -6.78515625 4.6328125 C-5.90730469 3.99085937 -5.02945313 3.34890625 -4.125 2.6875 C-3.38507813 2.13449219 -2.64515625 1.58148437 -1.8828125 1.01171875 C-1.26148438 0.67785156 -0.64015625 0.34398438 0 0 Z M-10 13 C-11.03640625 13.77085938 -12.0728125 14.54171875 -13.140625 15.3359375 C-14.51029729 16.34911974 -15.88009557 17.36213166 -17.25 18.375 C-17.93191406 18.88289063 -18.61382812 19.39078125 -19.31640625 19.9140625 C-19.98027344 20.40390625 -20.64414063 20.89375 -21.328125 21.3984375 C-21.9355957 21.84880371 -22.54306641 22.29916992 -23.16894531 22.76318359 C-25 24 -25 24 -27.16699219 25.03759766 C-29.17565195 25.86462182 -29.17565195 25.86462182 -30 28 C-31.64709661 29.03191595 -33.31719987 30.02739449 -35 31 C-36.57298901 32.06804632 -38.13532121 33.15192971 -39.6875 34.25 C-40.99460937 35.17232422 -40.99460937 35.17232422 -42.328125 36.11328125 C-43.20984375 36.73589844 -44.0915625 37.35851562 -45 38 C-46.64557221 39.14620831 -48.29140222 40.29204661 -49.9375 41.4375 C-53.48692199 43.920429 -57.00131055 46.44610433 -60.5 49 C-64.13058262 51.64697797 -67.77006647 54.2792541 -71.4375 56.875 C-72.61119141 57.70644531 -72.61119141 57.70644531 -73.80859375 58.5546875 C-75.8200727 59.88133137 -77.82112819 60.97756812 -80 62 C-80 62.66 -80 63.32 -80 64 C-73.21919654 64.12660072 -66.43869681 64.21426679 -59.65698242 64.2746582 C-57.34924938 64.29982875 -55.04159626 64.33396797 -52.73413086 64.37719727 C-49.42020985 64.43773526 -46.10734106 64.46618449 -42.79296875 64.48828125 C-41.7585112 64.51408768 -40.72405365 64.5398941 -39.6582489 64.56648254 C-37.01185983 64.56752277 -34.59236812 64.53188663 -32 64 C-29.78032377 61.78814285 -29.78032377 61.78814285 -29 59 C-28.51660156 58.08863281 -28.03320312 57.17726562 -27.53515625 56.23828125 C-25.21756283 51.63383172 -22.96006341 47.07009988 -21.125 42.25 C-19.05483068 36.85527911 -16.44663636 31.75824681 -13.81689453 26.62011719 C-11.10950067 21.43675339 -11.10950067 21.43675339 -9 16 C-9.495 14.515 -9.495 14.515 -10 13 Z " fill="#EFF1F0" transform="translate(202,28)"/>
<path d="M0 0 C9.85723081 -0.11575743 19.71430043 -0.20464577 29.57207203 -0.25906086 C34.14928474 -0.28517521 38.7260331 -0.32060617 43.30297852 -0.37719727 C47.71854412 -0.43145246 52.1336626 -0.46140668 56.54953575 -0.47438622 C58.23573537 -0.48363788 59.92191001 -0.50170429 61.60791969 -0.52865028 C63.96677492 -0.56485657 66.32377377 -0.56994922 68.68286133 -0.56762695 C69.38273163 -0.58560333 70.08260193 -0.60357971 70.80368042 -0.62210083 C72.75398254 -0.60127258 72.75398254 -0.60127258 76 0 C77.88212585 2.36335754 77.88212585 2.36335754 79 5 C79.59554687 6.36318359 79.59554687 6.36318359 80.203125 7.75390625 C80.54859375 8.68074219 80.8940625 9.60757813 81.25 10.5625 C81.60578125 11.49191406 81.9615625 12.42132813 82.328125 13.37890625 C83.02426446 16.09465963 82.95227003 17.4056746 82 20 C82 19.34 82 18.68 82 18 C81.34 18.66 80.68 19.32 80 20 C80.99 22.475 80.99 22.475 82 25 C81.34 25.33 80.68 25.66 80 26 C78.99263372 23.06497405 77.99539496 20.12660539 77 17.1875 C76.71382813 16.35412109 76.42765625 15.52074219 76.1328125 14.66210938 C75.72675781 13.45844727 75.72675781 13.45844727 75.3125 12.23046875 C75.06113281 11.49207764 74.80976563 10.75368652 74.55078125 9.99291992 C74 8 74 8 74 5 C52.55 5.33 31.1 5.66 9 6 C11.97 9.63 14.94 13.26 18 17 C15 17 15 17 13 16 C12.01 16.33 11.02 16.66 10 17 C9.16855469 15.84371094 9.16855469 15.84371094 8.3203125 14.6640625 C7.59585938 13.66117188 6.87140625 12.65828125 6.125 11.625 C5.40570313 10.62726563 4.68640625 9.62953125 3.9453125 8.6015625 C2.1005342 6.00530106 2.1005342 6.00530106 0 4 C0 2.68 0 1.36 0 0 Z " fill="#E8EBE9" transform="translate(97,109)"/>
<path d="M0 0 C-0.52320013 6.27840157 -1.93903646 8.87807293 -5 15 C-23.81 15 -42.62 15 -62 15 C-58.24753723 11.24753723 -55.56503898 11.49260797 -50.5625 11.375 C-49.04285049 11.32370381 -47.52330763 11.26912171 -46.00390625 11.2109375 C-45.33174072 11.19337402 -44.6595752 11.17581055 -43.96704102 11.15771484 C-42.00156609 11.06256725 -42.00156609 11.06256725 -40.1706543 10.49291992 C-37.17598378 9.81287946 -34.334668 9.88888304 -31.265625 9.90234375 C-29.97011719 9.90556641 -28.67460937 9.90878906 -27.33984375 9.91210938 C-25.97656183 9.92046402 -24.61328058 9.92892896 -23.25 9.9375 C-21.87109535 9.94251832 -20.49218896 9.94708065 -19.11328125 9.95117188 C-15.74214341 9.96295907 -12.37109372 9.97941365 -9 10 C-8.32130859 8.32744141 -8.32130859 8.32744141 -7.62890625 6.62109375 C-5.94111973 2.86910788 -4.42902375 0 0 0 Z " fill="#F5F7F6" transform="translate(179,81)"/>
<path d="M0 0 C1.40829826 0.00212242 1.40829826 0.00212242 2.845047 0.00428772 C5.79907629 0.00981727 8.75302546 0.0223558 11.70703125 0.03515625 C13.72851452 0.04018038 15.74999899 0.04474167 17.77148438 0.04882812 C22.68753015 0.05976348 27.60351719 0.07697801 32.51953125 0.09765625 C33.08203125 2.03515625 33.08203125 2.03515625 33.51953125 4.09765625 C31.68681687 5.93037063 29.13108353 5.22638495 26.69235229 5.23660278 C25.86961823 5.23457855 25.04688416 5.23255432 24.19921875 5.23046875 C23.348367 5.23142548 22.49751526 5.2323822 21.62088013 5.23336792 C19.80666023 5.23405079 17.99243791 5.23218912 16.17822266 5.22802734 C13.45469333 5.22277233 10.73133601 5.22791998 8.0078125 5.234375 C-15.06279213 5.2465266 -15.06279213 5.2465266 -22.48046875 4.09765625 C-22.81046875 3.43765625 -23.14046875 2.77765625 -23.48046875 2.09765625 C-16.90832596 -1.18841514 -7.22519374 -0.04219434 0 0 Z " fill="#F6F8F7" transform="translate(332.48046875,91.90234375)"/>
<path d="M0 0 C0.33 0.66 0.66 1.32 1 2 C1.99 2.33 2.98 2.66 4 3 C3.40939775 8.12961281 2.25360481 12.80153828 0.5625 17.6875 C0.34529297 18.33783203 0.12808594 18.98816406 -0.09570312 19.65820312 C-1.19474196 22.89591212 -2.36391628 25.99417176 -4 29 C-5.66666667 29 -7.33333333 29 -9 29 C-7.17792231 22.83752586 -5.29205595 16.6959689 -3.375 10.5625 C-3.04786011 9.51545898 -3.04786011 9.51545898 -2.71411133 8.44726562 C-1.82997022 5.62406183 -0.93555436 2.80666309 0 0 Z " fill="#E8EAE9" transform="translate(374,140)"/>
<path d="M0 0 C0.66 0.66 1.32 1.32 2 2 C2.33 1.34 2.66 0.68 3 0 C3.66 0 4.32 0 5 0 C4.50877547 8.13105861 3.64733759 16.01920915 2 24 C1.67 23.34 1.34 22.68 1 22 C-1.51083114 23.25541557 -1.87125446 24.50063488 -3 27 C-2.56408185 17.85719039 -1.9577539 8.97145478 0 0 Z " fill="#E9EBEA" transform="translate(264,255)"/>
<path d="M0 0 C0.99 0 1.98 0 3 0 C3.70123016 3.5807878 4.3835758 7.1649217 5.0625 10.75 C5.26166016 11.76578125 5.46082031 12.7815625 5.66601562 13.828125 C5.84970703 14.8078125 6.03339844 15.7875 6.22265625 16.796875 C6.39547119 17.69760742 6.56828613 18.59833984 6.74633789 19.52636719 C7.000207 22.0020186 6.7687064 23.65317049 6 26 C4.68 26 3.36 26 2 26 C1.26810078 22.60880723 0.5687127 19.21169225 -0.125 15.8125 C-0.33253906 14.85279297 -0.54007812 13.89308594 -0.75390625 12.90429688 C-0.94082031 11.97294922 -1.12773437 11.04160156 -1.3203125 10.08203125 C-1.49836426 9.22843018 -1.67641602 8.3748291 -1.85986328 7.49536133 C-2.0271494 4.51656094 -1.27392354 2.66688585 0 0 Z " fill="#F3F6F4" transform="translate(312,175)"/>
<path d="M0 0 C1.02575676 5.27823181 0.80488532 9.21948164 -0.4375 14.4375 C-0.72496094 15.67371094 -1.01242187 16.90992188 -1.30859375 18.18359375 C-1.53675781 19.11300781 -1.76492188 20.04242188 -2 21 C-2.66 21 -3.32 21 -4 21 C-4.33 21.99 -4.66 22.98 -5 24 C-6.88606019 20.85447769 -7.1705204 19.04757767 -6.5390625 15.453125 C-6.39726562 14.60878906 -6.25546875 13.76445312 -6.109375 12.89453125 C-5.94953125 12.02183594 -5.7896875 11.14914063 -5.625 10.25 C-5.47289062 9.36183594 -5.32078125 8.47367188 -5.1640625 7.55859375 C-4.78755013 5.37011562 -4.39918943 3.18443564 -4 1 C-1 0 -1 0 0 0 Z " fill="#F2F4F3" transform="translate(271,234)"/>
<path d="M0 0 C0.66 0.33 1.32 0.66 2 1 C-0.97 11.395 -0.97 11.395 -4 22 C-4.66 22 -5.32 22 -6 22 C-6 21.34 -6 20.68 -6 20 C-6.66 20 -7.32 20 -8 20 C-7.2954603 13.37732678 -6.23297599 6.61577187 -1.8125 1.4375 C-1.214375 0.963125 -0.61625 0.48875 0 0 Z " fill="#F4F5F4" transform="translate(479,152)"/>
<path d="M0 0 C2.078125 1.98046875 2.078125 1.98046875 4 5 C3.79899706 8.01799996 3.45734796 10.42373223 2.75 13.3125 C2.58886719 14.05306641 2.42773438 14.79363281 2.26171875 15.55664062 C1.86264588 17.3759434 1.43418762 19.18875655 1 21 C0.34 21 -0.32 21 -1 21 C-1 20.34 -1 19.68 -1 19 C-1.99 19 -2.98 19 -4 19 C-3.46048934 12.31006781 -2.11293829 6.36539272 0 0 Z " fill="#E8EAE9" transform="translate(465,191)"/>
<path d="M0 0 C0.33 0.99 0.66 1.98 1 3 C1.66 3 2.32 3 3 3 C3.66 2.34 4.32 1.68 5 1 C5.06058594 1.56847656 5.12117188 2.13695312 5.18359375 2.72265625 C5.70176573 7.49781037 6.29243859 12.2492305 7 17 C6.34 17 5.68 17 5 17 C5 18.98 5 20.96 5 23 C1.11313327 19.11313327 0.1387258 13.25075531 -0.19140625 7.89453125 C-0.18799315 5.25620423 -0.13523771 2.63463086 0 0 Z " fill="#E7E9E8" transform="translate(256,307)"/>
<path d="M0 0 C0.33 0 0.66 0 1 0 C1.50604924 2.39469729 2.00499517 4.79051717 2.5 7.1875 C2.64308594 7.86103516 2.78617187 8.53457031 2.93359375 9.22851562 C3.68069842 12.87509793 4.17352282 16.27648957 4 20 C2.35 20.33 0.7 20.66 -1 21 C-3.48063781 10.62642369 -3.48063781 10.62642369 -2 5 C-1.34 5 -0.68 5 0 5 C0 3.35 0 1.7 0 0 Z " fill="#ECEEEE" transform="translate(323,230)"/>
<path d="M0 0 C0 1.65 0 3.3 0 5 C-5.48675196 6.86783046 -10.22192976 7.2358396 -16 7 C-16 6.01 -16 5.02 -16 4 C-4 0 -4 0 0 0 Z " fill="#F3F4F4" transform="translate(57,117)"/>
<path d="M0 0 C1.875 0.125 1.875 0.125 4 1 C6.52087892 5.92171599 5.90453894 9.75367413 5 15 C2.63442627 12.86699672 1.37032472 11.04050601 0.25 8.0625 C-0.01296875 7.39347656 -0.2759375 6.72445312 -0.546875 6.03515625 C-1.07046274 3.68352509 -0.74954377 2.26382477 0 0 Z " fill="#F4F6F5" transform="translate(202,203)"/>
<path d="M0 0 C0.33 0 0.66 0 1 0 C1.33 3.3 1.66 6.6 2 10 C1.34 10 0.68 10 0 10 C-0.33 12.31 -0.66 14.62 -1 17 C-2.79275866 13.88089144 -3.34290718 11.32317572 -3.625 7.75 C-3.69976562 6.85796875 -3.77453125 5.9659375 -3.8515625 5.046875 C-3.92503906 4.03367187 -3.92503906 4.03367187 -4 3 C-3.01 2.67 -2.02 2.34 -1 2 C-0.67 1.34 -0.34 0.68 0 0 Z " fill="#E7E9E8" transform="translate(305,119)"/>
<path d="M0 0 C2.046875 1.609375 2.046875 1.609375 4 4 C3.953125 7.015625 3.953125 7.015625 3.25 10.25 C3.02828125 11.32765625 2.8065625 12.4053125 2.578125 13.515625 C2.38734375 14.33546875 2.1965625 15.1553125 2 16 C1.01 16 0.02 16 -1 16 C-1.02685095 13.52076199 -1.04676547 11.0418116 -1.0625 8.5625 C-1.07506836 7.50192383 -1.07506836 7.50192383 -1.08789062 6.41992188 C-1.09653588 4.61306441 -1.05220011 2.80612397 -1 1 C-0.67 0.67 -0.34 0.34 0 0 Z " fill="#F6F7F6" transform="translate(275,191)"/>
<path d="M0 0 C0.33 0 0.66 0 1 0 C1.33 1.98 1.66 3.96 2 6 C1.01 6.33 0.02 6.66 -1 7 C-1 7.66 -1 8.32 -1 9 C-0.34 9 0.32 9 1 9 C2.23076923 14.41538462 2.23076923 14.41538462 1.0625 17.375 C0.711875 17.91125 0.36125 18.4475 0 19 C-0.33 18.01 -0.66 17.02 -1 16 C-1.99 16.33 -2.98 16.66 -4 17 C-2.07289294 5.47835991 -2.07289294 5.47835991 0 0 Z " fill="#E5EAE6" transform="translate(485,115)"/>
<path d="M0 0 C3 1 3 1 4.01953125 2.9609375 C4.28121094 3.75757813 4.54289062 4.55421875 4.8125 5.375 C5.08707031 6.16648437 5.36164063 6.95796875 5.64453125 7.7734375 C6 10 6 10 4 13 C3.01 12.67 2.02 12.34 1 12 C-0.6101163 8.27130963 -1.34760216 5.05535854 -1 1 C-0.67 0.67 -0.34 0.34 0 0 Z " fill="#F5F7F6" transform="translate(266,342)"/>
<path d="M0 0 C2.25 2.75 2.25 2.75 3.25 5.75 C2.59 5.75 1.93 5.75 1.25 5.75 C0.92 6.74 0.59 7.73 0.25 8.75 C-3.00524265 5.72727468 -5.36820737 2.49281699 -7.75 -1.25 C-3.9911494 -2.64614451 -3.19754246 -2.6161711 0 0 Z " fill="#EBEDED" transform="translate(137.75,156.25)"/>
<path d="M0 0 C1.32 0 2.64 0 4 0 C5.42857143 8.57142857 5.42857143 8.57142857 3 12 C2.01 11.67 1.02 11.34 0 11 C-1.125 3.375 -1.125 3.375 0 0 Z " fill="#F4F6F4" transform="translate(306,261)"/>
<path d="M0 0 C1.32 0.66 2.64 1.32 4 2 C3.34 5.63 2.68 9.26 2 13 C1.01 13 0.02 13 -1 13 C-2.07310858 9.72814447 -1.89263102 7.57052408 -1.0625 4.25 C-0.86785156 3.45078125 -0.67320312 2.6515625 -0.47265625 1.828125 C-0.31667969 1.22484375 -0.16070312 0.6215625 0 0 Z " fill="#F5F7F6" transform="translate(357,192)"/>
<path d="M0 0 C0.33 0.66 0.66 1.32 1 2 C1.99 2 2.98 2 4 2 C5.28571429 10.42857143 5.28571429 10.42857143 4 15 C2.015625 13.88671875 2.015625 13.88671875 0 12 C-0.390625 9.08203125 -0.390625 9.08203125 -0.25 5.8125 C-0.21390625 4.72582031 -0.1778125 3.63914063 -0.140625 2.51953125 C-0.09421875 1.68808594 -0.0478125 0.85664063 0 0 Z " fill="#F4F6F5" transform="translate(293,176)"/>
<path d="M0 0 C0.33 0 0.66 0 1 0 C1.33 3.63 1.66 7.26 2 11 C0.35 11.66 -1.3 12.32 -3 13 C-3.33 10.03 -3.66 7.06 -4 4 C-3.34 3.67 -2.68 3.34 -2 3 C-1.34 3.33 -0.68 3.66 0 4 C0 2.68 0 1.36 0 0 Z " fill="#E7EDED" transform="translate(318,197)"/>
<path d="M0 0 C0.66 0 1.32 0 2 0 C1.91433603 2.912575 1.42089045 4.56798024 -0.625 6.66796875 C-2.38391375 8.16091772 -4.16313019 9.60436262 -6 11 C-6.93423645 7.98968256 -7.04449911 7.13349732 -6 4 C-3.5 2.375 -3.5 2.375 -1 1 C-0.67 0.67 -0.34 0.34 0 0 Z " fill="#F3F6F5" transform="translate(499,175)"/>
<path d="M0 0 C1.32 0.99 2.64 1.98 4 3 C3.34 5.97 2.68 8.94 2 12 C-0.475 11.01 -0.475 11.01 -3 10 C-2.01 6.7 -1.02 3.4 0 0 Z " fill="#EAEBEA" transform="translate(304,343)"/>
<path d="M0 0 C0.99 0 1.98 0 3 0 C3.24954005 1.43410368 3.47392642 2.87260072 3.6875 4.3125 C3.81511719 5.11300781 3.94273438 5.91351563 4.07421875 6.73828125 C4 9 4 9 2.51953125 10.79296875 C2.01808594 11.19128906 1.51664062 11.58960938 1 12 C-0.41404314 8.19975907 -1.34892324 5.07077118 -1 1 C-0.67 0.67 -0.34 0.34 0 0 Z " fill="#F3F4F3" transform="translate(101,171)"/>
<path d="M0 0 C0.99 0.33 1.98 0.66 3 1 C4.23076923 7.4 4.23076923 7.4 3.0625 10.4375 C2.711875 10.953125 2.36125 11.46875 2 12 C2 11.34 2 10.68 2 10 C1.01 9.67 0.02 9.34 -1 9 C-1.625 5.625 -1.625 5.625 -2 2 C-1.34 1.34 -0.68 0.68 0 0 Z " fill="#F6F8F7" transform="translate(324,249)"/>
<path d="M0 0 C0.33 0 0.66 0 1 0 C2.20568053 4.67201205 2.09382426 9.21496292 2 14 C1.34 14 0.68 14 0 14 C-0.66 15.32 -1.32 16.64 -2 18 C-2.33 14.7 -2.66 11.4 -3 8 C-2.01 8.33 -1.02 8.66 0 9 C0 6.03 0 3.06 0 0 Z " fill="#E7E9E7" transform="translate(312,280)"/>
<path d="M0 0 C0.94875 0.350625 1.8975 0.70125 2.875 1.0625 C2.545 2.3825 2.215 3.7025 1.875 5.0625 C-2.125 5.0625 -2.125 5.0625 -4.125 4.0625 C-4.455 4.7225 -4.785 5.3825 -5.125 6.0625 C-5.785 4.7425 -6.445 3.4225 -7.125 2.0625 C-6.465 2.0625 -5.805 2.0625 -5.125 2.0625 C-5.125 1.4025 -5.125 0.7425 -5.125 0.0625 C-3.125 -0.9375 -3.125 -0.9375 0 0 Z " fill="#F0F1F1" transform="translate(545.125,122.9375)"/>
<path d="M0 0 C2.39073445 3.82517513 2.55966552 7.59665524 3 12 C1.68 12 0.36 12 -1 12 C-2.42857143 3.42857143 -2.42857143 3.42857143 0 0 Z " fill="#F5F7F6" transform="translate(89,117)"/>
<path d="M0 0 C1.65 0.99 3.3 1.98 5 3 C4.67 5.97 4.34 8.94 4 12 C2 11.0625 2 11.0625 0 9 C-0.36475845 5.97465051 -0.22893297 3.03336186 0 0 Z " fill="#EBECEC" transform="translate(275,182)"/>
<path d="M0 0 C1.96713413 2.95070119 2.65358161 4.53581611 3 8 C2.01 9.485 2.01 9.485 1 11 C0.01 10.67 -0.98 10.34 -2 10 C-2.25 3.375 -2.25 3.375 0 0 Z " fill="#F3F5F4" transform="translate(96,144)"/>
<path d="M0 0 C1.485 0.99 1.485 0.99 3 2 C3 2.66 3 3.32 3 4 C3.99 4.33 4.98 4.66 6 5 C6.75 7 6.75 7 7 9 C6 10 6 10 2.4375 10.0625 C1.303125 10.041875 0.16875 10.02125 -1 10 C-0.34 9.01 0.32 8.02 1 7 C1 4.37886292 0.68707555 2.49064888 0 0 Z " fill="#F1F3F3" transform="translate(266,86)"/>
<path d="M0 0 C0.99 0 1.98 0 3 0 C4.71050559 4.97601626 3.00885647 8.42616295 1 13 C0.67 13 0.34 13 0 13 C-0.98248196 8.94726192 -1.16017882 5.16464926 -1 1 C-0.67 0.67 -0.34 0.34 0 0 Z " fill="#EEF0EE" transform="translate(317,208)"/>
<path d="M0 0 C0.66 0 1.32 0 2 0 C2 2.64 2 5.28 2 8 C2.99 8.33 3.98 8.66 5 9 C4.01 10.485 4.01 10.485 3 12 C2.01 11.67 1.02 11.34 0 11 C-0.19491452 9.54263913 -0.38069358 8.08405407 -0.5625 6.625 C-0.66691406 5.81289062 -0.77132813 5.00078125 -0.87890625 4.1640625 C-1 2 -1 2 0 0 Z " fill="#FBFDFC" transform="translate(301,226)"/>
<path d="M0 0 C1.9375 0.375 1.9375 0.375 4 1 C4.33 1.66 4.66 2.32 5 3 C4.0625 5.625 4.0625 5.625 3 8 C1.68 7.67 0.36 7.34 -1 7 C-0.67 4.69 -0.34 2.38 0 0 Z " fill="#F7F7F7" transform="translate(301,353)"/>
<path d="M0 0 C2.31 0.33 4.62 0.66 7 1 C6.01 1.495 6.01 1.495 5 2 C4.34786708 4.02463255 4.34786708 4.02463255 4 6 C0.28111761 5.49287967 -2.73454239 4.88391785 -6 3 C-4.02 2.67 -2.04 2.34 0 2 C0 1.34 0 0.68 0 0 Z " fill="#E2E3E2" transform="translate(535,121)"/>
<path d="M0 0 C0.66 0.66 1.32 1.32 2 2 C1.625 4.625 1.625 4.625 1 7 C0.34 7 -0.32 7 -1 7 C-1.33 7.66 -1.66 8.32 -2 9 C-2.66 9 -3.32 9 -4 9 C-4.33 8.01 -4.66 7.02 -5 6 C-4.34 5.01 -3.68 4.02 -3 3 C-2.34 3 -1.68 3 -1 3 C-0.67 2.01 -0.34 1.02 0 0 Z " fill="#F5F8F6" transform="translate(189,55)"/>
<path d="M0 0 C0.99 0.33 1.98 0.66 3 1 C3 2.65 3 4.3 3 6 C3.66 6 4.32 6 5 6 C4.34 7.32 3.68 8.64 3 10 C2.34 9.67 1.68 9.34 1 9 C0.5859375 6.93359375 0.5859375 6.93359375 0.375 4.4375 C0.30023438 3.61121094 0.22546875 2.78492188 0.1484375 1.93359375 C0.09945312 1.29550781 0.05046875 0.65742188 0 0 Z " fill="#F7F8F8" transform="translate(183,147)"/>
<path d="M0 0 C3.96 0 7.92 0 12 0 C12 0.33 12 0.66 12 1 C10.4221875 1.0928125 10.4221875 1.0928125 8.8125 1.1875 C4.3708265 2.13408616 2.88406243 3.59156258 0 7 C-1.125 2.25 -1.125 2.25 0 0 Z " fill="#DEDFDF" transform="translate(185,108)"/>
<path d="M0 0 C0.33 0.66 0.66 1.32 1 2 C2.093125 2 3.18625 2 4.3125 2 C6.54166667 2 8.77083333 2 11 2 C11 2.99 11 3.98 11 5 C9.56163249 4.88541307 8.12429034 4.75790884 6.6875 4.625 C5.88699219 4.55539063 5.08648438 4.48578125 4.26171875 4.4140625 C2 4 2 4 -1 2 C-0.67 1.34 -0.34 0.68 0 0 Z " fill="#F9FBFA" transform="translate(524,119)"/>
<path d="M0 0 C0.598125 0.350625 1.19625 0.70125 1.8125 1.0625 C1.4825 2.0525 1.1525 3.0425 0.8125 4.0625 C-1.125 4.8125 -1.125 4.8125 -3.1875 5.0625 C-3.8475 4.7325 -4.5075 4.4025 -5.1875 4.0625 C-5.1875 2.7425 -5.1875 1.4225 -5.1875 0.0625 C-2.1875 -0.9375 -2.1875 -0.9375 0 0 Z " fill="#F8FAF8" transform="translate(75.1875,112.9375)"/>
<path d="M0 0 C2.64752004 2.57784846 4.94432065 4.91648098 7 8 C6.236875 7.649375 5.47375 7.29875 4.6875 6.9375 C1.95240621 5.67639116 1.95240621 5.67639116 -1 7 C-1.99 5.35 -2.98 3.7 -4 2 C-1.525 2.495 -1.525 2.495 1 3 C0.67 2.01 0.34 1.02 0 0 Z " fill="#DDE4E4" transform="translate(108,119)"/>
<path d="M0 0 C0 1.32 0 2.64 0 4 C-1.98 4 -3.96 4 -6 4 C-6.33 2.68 -6.66 1.36 -7 0 C-4.3333581 -1.33332095 -2.83319697 -0.67102033 0 0 Z " fill="#F5F7F6" transform="translate(505,113)"/>
<path d="M0 0 C0.66 0.99 1.32 1.98 2 3 C1.071875 3.763125 0.14375 4.52625 -0.8125 5.3125 C-2.98276101 7.11848552 -5.05568065 8.9476629 -7 11 C-7.66 10.67 -8.32 10.34 -9 10 C-6.22237877 6.39937989 -3.26008643 3.16952847 0 0 Z " fill="#ECEEEC" transform="translate(85,46)"/>
<path d="M0 0 C0.66 0 1.32 0 2 0 C2.93423645 3.01031744 3.04449911 3.86650268 2 7 C0.68 6.67 -0.64 6.34 -2 6 C-1.125 1.125 -1.125 1.125 0 0 Z " fill="#F8FAF9" transform="translate(347,228)"/>
<path d="M0 0 C0 1.65 0 3.3 0 5 C-1.32 5.33 -2.64 5.66 -4 6 C-4 4.68 -4 3.36 -4 2 C-1 0 -1 0 0 0 Z M-8 5 C-7.01 5.33 -6.02 5.66 -5 6 C-5.99 6.33 -6.98 6.66 -8 7 C-8 6.34 -8 5.68 -8 5 Z " fill="#F5F6F6" transform="translate(538,134)"/>
<path d="M0 0 C1.32 0 2.64 0 4 0 C4 1.65 4 3.3 4 5 C3.34 5 2.68 5 2 5 C1.67 5.66 1.34 6.32 1 7 C-0.0625 5.1875 -0.0625 5.1875 -1 3 C-0.67 2.01 -0.34 1.02 0 0 Z " fill="#F6F8F7" transform="translate(370,153)"/>
<path d="M0 0 C0.66 0 1.32 0 2 0 C3.625 2 3.625 2 5 4 C4.01 5.485 4.01 5.485 3 7 C2.01 7 1.02 7 0 7 C-1.125 2.25 -1.125 2.25 0 0 Z " fill="#F7F9F8" transform="translate(365,47)"/>
<path d="M0 0 C0.33 0.99 0.66 1.98 1 3 C1.66 3.33 2.32 3.66 3 4 C3.33 3.34 3.66 2.68 4 2 C3.67 4.31 3.34 6.62 3 9 C2.67 8.01 2.34 7.02 2 6 C0.02 6.99 0.02 6.99 -2 8 C-1.125 2.25 -1.125 2.25 0 0 Z " fill="#E6E9E7" transform="translate(337,253)"/>
<path d="M0 0 C0.33 0 0.66 0 1 0 C1.33 2.97 1.66 5.94 2 9 C1.01 9 0.02 9 -1 9 C-1.66 9.66 -2.32 10.32 -3 11 C-2.67 9.02 -2.34 7.04 -2 5 C-1.34 5 -0.68 5 0 5 C0 3.35 0 1.7 0 0 Z " fill="#DFE1E0" transform="translate(323,230)"/>
<path d="M0 0 C0.99 0 1.98 0 3 0 C2.67 3.63 2.34 7.26 2 11 C1.67 11 1.34 11 1 11 C1 9.02 1 7.04 1 5 C0.01 4.67 -0.98 4.34 -2 4 C-1.34 2.68 -0.68 1.36 0 0 Z " fill="#FBFCFB" transform="translate(312,175)"/>
<path d="M0 0 C2 3 2 3 2 5 C1.34 5 0.68 5 0 5 C-0.33 6.65 -0.66 8.3 -1 10 C-3 7 -3 7 -2.75 5 C-2 3 -2 3 0 0 Z " fill="#E1E3E2" transform="translate(188,153)"/>
<path d="M0 0 C0.66 0.33 1.32 0.66 2 1 C-0.31 3.64 -2.62 6.28 -5 9 C-5 4.61031544 -2.87194899 3.23094261 0 0 Z M-8 9 C-7.01 9.33 -6.02 9.66 -5 10 C-5.66 10.66 -6.32 11.32 -7 12 C-7.66 11.34 -8.32 10.68 -9 10 C-8.67 9.67 -8.34 9.34 -8 9 Z " fill="#E7E8E7" transform="translate(38,96)"/>
<path d="M0 0 C1.9375 0.3125 1.9375 0.3125 4 1 C4.33 1.99 4.66 2.98 5 4 C4.34 4 3.68 4 3 4 C2.67 4.99 2.34 5.98 2 7 C0 6 0 6 -0.6875 4.0625 C-1 2 -1 2 0 0 Z " fill="#FBFCFC" transform="translate(257,304)"/>
<path d="M0 0 C0.99 0.33 1.98 0.66 3 1 C2.67 2.32 2.34 3.64 2 5 C1.34 5 0.68 5 0 5 C-0.33 5.99 -0.66 6.98 -1 8 C-1.66 6.68 -2.32 5.36 -3 4 C-2.34 4 -1.68 4 -1 4 C-0.67 2.68 -0.34 1.36 0 0 Z " fill="#FAFCFB" transform="translate(267,250)"/>
<path d="M0 0 C0.66 0.33 1.32 0.66 2 1 C2.625 4.0625 2.625 4.0625 3 7 C2.67 6.34 2.34 5.68 2 5 C1.34 5 0.68 5 0 5 C0.20625 5.61875 0.4125 6.2375 0.625 6.875 C0.74875 7.57625 0.8725 8.2775 1 9 C0.34 9.66 -0.32 10.32 -1 11 C-2.125 6.25 -2.125 6.25 -1 4 C-0.34 4 0.32 4 1 4 C0.67 2.68 0.34 1.36 0 0 Z " fill="#E5E7E5" transform="translate(200,190)"/>
<path d="M0 0 C1.125 1.625 1.125 1.625 2 4 C1.125 7.25 1.125 7.25 0 10 C-0.33 9.34 -0.66 8.68 -1 8 C-1.66 8 -2.32 8 -3 8 C-3 6 -3 6 -1 4 C-0.3574765 1.93125966 -0.3574765 1.93125966 0 0 Z " fill="#FAFCFB" transform="translate(487,116)"/>
<path d="M0 0 C1.32 0.66 2.64 1.32 4 2 C4 3.32 4 4.64 4 6 C2.02 6 0.04 6 -2 6 C-1.67 5.38125 -1.34 4.7625 -1 4.125 C0.14193235 2.08981656 0.14193235 2.08981656 0 0 Z " fill="#EFF0F0" transform="translate(455,90)"/>
<path d="M0 0 C1.33332095 2.6666419 0.67102033 4.16680303 0 7 C-0.66 7 -1.32 7 -2 7 C-2.33 7.66 -2.66 8.32 -3 9 C-3.33 7.02 -3.66 5.04 -4 3 C-3.34 3 -2.68 3 -2 3 C-2 2.34 -2 1.68 -2 1 C-1.34 0.67 -0.68 0.34 0 0 Z " fill="#F8F9F9" transform="translate(323,228)"/>
<path d="M0 0 C0.33 0.66 0.66 1.32 1 2 C2.65 1.67 4.3 1.34 6 1 C4.515 3.475 4.515 3.475 3 6 C1.68 5.67 0.36 5.34 -1 5 C-0.67 3.35 -0.34 1.7 0 0 Z " fill="#E8E8E8" transform="translate(458,217)"/>
<path d="M0 0 C0.33 0 0.66 0 1 0 C1.25 6.625 1.25 6.625 -1 10 C-1 8.35 -1 6.7 -1 5 C-1.66 5 -2.32 5 -3 5 C-1.125 1.125 -1.125 1.125 0 0 Z " fill="#EDF6F5" transform="translate(352,216)"/>
<path d="M0 0 C1.32 0 2.64 0 4 0 C4 1.65 4 3.3 4 5 C2.35 4.67 0.7 4.34 -1 4 C-0.67 2.68 -0.34 1.36 0 0 Z " fill="#FAFCFB" transform="translate(297,205)"/>
<path d="M0 0 C0.33 0 0.66 0 1 0 C1.41176754 3.60296594 1.1535853 4.78402067 -1 7.8125 C-1.66 8.534375 -2.32 9.25625 -3 10 C-3.33 8.02 -3.66 6.04 -4 4 C-3.34 3.67 -2.68 3.34 -2 3 C-1.34 3.33 -0.68 3.66 0 4 C0 2.68 0 1.36 0 0 Z " fill="#E2E3E2" transform="translate(318,197)"/>
<path d="M0 0 C0.98120464 3.05263664 0.98120464 4.94736336 0 8 C-1.32 7.67 -2.64 7.34 -4 7 C-3.67 5.68 -3.34 4.36 -3 3 C-2.34 3 -1.68 3 -1 3 C-0.67 2.01 -0.34 1.02 0 0 Z " fill="#F6FBFA" transform="translate(379,135)"/>
<path d="M0 0 C0 3 0 3 -1.53125 4.82421875 C-2.1809375 5.43910156 -2.830625 6.05398437 -3.5 6.6875 C-4.1496875 7.31011719 -4.799375 7.93273438 -5.46875 8.57421875 C-5.9740625 9.04472656 -6.479375 9.51523437 -7 10 C-7.66 9.67 -8.32 9.34 -9 9 C-7.87895467 7.68412059 -6.75303035 6.37239647 -5.625 5.0625 C-4.99851562 4.33160156 -4.37203125 3.60070312 -3.7265625 2.84765625 C-2 1 -2 1 0 0 Z " fill="#DBDCDB" transform="translate(105,25)"/>
<path d="M0 0 C0.66 0 1.32 0 2 0 C1.67 2.64 1.34 5.28 1 8 C-0.32 6.68 -1.64 5.36 -3 4 C-1.625 2 -1.625 2 0 0 Z " fill="#FBFDFC" transform="translate(296,183)"/>
<path d="M0 0 C1.5625 1.1875 1.5625 1.1875 3 3 C2.6875 5.6875 2.6875 5.6875 2 8 C1.01 7.67 0.02 7.34 -1 7 C-1.04254356 5.00045254 -1.04080783 2.99958364 -1 1 C-0.67 0.67 -0.34 0.34 0 0 Z " fill="#FAFCFB" transform="translate(261,323)"/>
<path d="M0 0 C1.98 0.495 1.98 0.495 4 1 C3.67 2.65 3.34 4.3 3 6 C1.68 5.67 0.36 5.34 -1 5 C-0.67 3.35 -0.34 1.7 0 0 Z " fill="#FBFDFC" transform="translate(307,267)"/>
<path d="M0 0 C0.99 0.99 1.98 1.98 3 3 C1.68 3.99 0.36 4.98 -1 6 C-1.99 5.01 -2.98 4.02 -4 3 C-2.68 2.01 -1.36 1.02 0 0 Z " fill="#F3F5F4" transform="translate(478,198)"/>
<path d="M0 0 C2.475 0.99 2.475 0.99 5 2 C4.01 2.99 3.02 3.98 2 5 C1.01 4.67 0.02 4.34 -1 4 C-0.67 2.68 -0.34 1.36 0 0 Z " fill="#F8F9F8" transform="translate(124,143)"/>
<path d="M0 0 C0.66 0.33 1.32 0.66 2 1 C2 2.65 2 4.3 2 6 C0.68 6 -0.64 6 -2 6 C-2.66 5.01 -3.32 4.02 -4 3 C-2.68 2.67 -1.36 2.34 0 2 C0 1.34 0 0.68 0 0 Z " fill="#DBDCDB" transform="translate(472,89)"/>
<path d="M0 0 C1.65 1.32 3.3 2.64 5 4 C4.67 4.66 4.34 5.32 4 6 C2.35 5.67 0.7 5.34 -1 5 C-0.67 3.35 -0.34 1.7 0 0 Z " fill="#EEF0EF" transform="translate(461,17)"/>
<path d="M0 0 C-0.33 2.31 -0.66 4.62 -1 7 C-1.99 6.01 -2.98 5.02 -4 4 C-4.99 4.495 -4.99 4.495 -6 5 C-3.74193548 0 -3.74193548 0 0 0 Z " fill="#E7E9E8" transform="translate(296,385)"/>
<path d="M0 0 C0.99 0.33 1.98 0.66 3 1 C2.34 2.65 1.68 4.3 1 6 C0.34 6 -0.32 6 -1 6 C-1 5.34 -1 4.68 -1 4 C-1.66 4 -2.32 4 -3 4 C-3 3.34 -3 2.68 -3 2 C-2.01 1.34 -1.02 0.68 0 0 Z " fill="#F6F7F6" transform="translate(131,78)"/>
<path d="M0 0 C0.99 0.33 1.98 0.66 3 1 C2.67 1.66 2.34 2.32 2 3 C1.01 3.33 0.02 3.66 -1 4 C-1.33 4.99 -1.66 5.98 -2 7 C-2.99 6.67 -3.98 6.34 -5 6 C-3.35 4.02 -1.7 2.04 0 0 Z " fill="#E6E8E7" transform="translate(112,17)"/>
<path d="M0 0 C0.66 0.33 1.32 0.66 2 1 C1.34 2.65 0.68 4.3 0 6 C-0.99 5.34 -1.98 4.68 -3 4 C-2.67 3.01 -2.34 2.02 -2 1 C-1.34 0.67 -0.68 0.34 0 0 Z " fill="#FAFCFB" transform="translate(308,143)"/>
<path d="M0 0 C0.66 0.33 1.32 0.66 2 1 C0.25 4.875 0.25 4.875 -2 6 C-2.33 4.68 -2.66 3.36 -3 2 C-2.01 1.34 -1.02 0.68 0 0 Z " fill="#DFDFDF" transform="translate(543,128)"/>
</svg>